<?xml version="1.0" encoding="UTF-8"?>
<svg xmlns="http://www.w3.org/2000/svg" xmlns:xlink="http://www.w3.org/1999/xlink" width="170.3pt" height="131.6pt" viewBox="0 0 170.3 131.6" version="1.1">
<defs>
<clipPath id="clip1">
  <path d="M 0 61 L 170.300781 61 L 170.300781 131.601563 L 0 131.601563 Z M 0 61 "/>
</clipPath>
</defs>
<g id="surface1">
<path style=" stroke:none;fill-rule:evenodd;fill:rgb(0%,44.700623%,73.631287%);fill-opacity:1;" d="M 38.023438 31.335938 L 51.371094 11.734375 C 52.320313 10.34375 54.234375 9.980469 55.625 10.929688 C 57.015625 11.875 57.378906 13.789063 56.429688 15.179688 L 43.085938 34.78125 C 38.847656 41.007813 31.277344 40.953125 27.074219 34.78125 L 13.726563 15.179688 C 12.78125 13.789063 13.144531 11.875 14.535156 10.929688 C 15.925781 9.980469 17.839844 10.34375 18.785156 11.734375 L 32.132813 31.335938 C 34.402344 34.671875 35.582031 34.917969 38.023438 31.335938 Z M 59.097656 3.59375 L 63.378906 0.109375 C 63.589844 -0.0585938 63.898438 -0.0273438 64.066406 0.179688 L 67.550781 4.464844 C 67.71875 4.671875 67.6875 4.984375 67.480469 5.152344 L 63.195313 8.636719 C 62.988281 8.804688 62.675781 8.773438 62.507813 8.566406 L 59.023438 4.28125 C 58.855469 4.070313 58.886719 3.761719 59.097656 3.59375 Z M 127.492188 10.398438 L 142.722656 10.398438 C 150.683594 10.398438 157.199219 16.914063 157.199219 24.878906 L 157.199219 25.378906 C 157.199219 33.34375 150.683594 39.855469 142.722656 39.855469 L 127.492188 39.855469 C 119.53125 39.855469 113.015625 33.34375 113.015625 25.378906 L 113.015625 24.878906 C 113.015625 16.914063 119.53125 10.398438 127.492188 10.398438 Z M 127.441406 16.074219 L 142.773438 16.074219 C 147.667969 16.074219 151.671875 20.078125 151.671875 24.972656 L 151.671875 25.28125 C 151.671875 30.175781 147.667969 34.179688 142.773438 34.179688 L 127.441406 34.179688 C 122.546875 34.179688 118.542969 30.175781 118.542969 25.28125 L 118.542969 24.972656 C 118.542969 20.078125 122.546875 16.074219 127.441406 16.074219 Z M 94.441406 31.335938 L 107.789063 11.734375 C 108.734375 10.34375 110.648438 9.980469 112.042969 10.929688 C 113.433594 11.875 113.796875 13.789063 112.847656 15.179688 L 99.5 34.78125 C 95.265625 41.007813 87.695313 40.953125 83.492188 34.78125 L 70.144531 15.179688 C 69.195313 13.789063 69.558594 11.875 70.953125 10.929688 C 72.34375 9.980469 74.257813 10.34375 75.203125 11.734375 L 88.550781 31.335938 C 90.820313 34.671875 91.996094 34.917969 94.441406 31.335938 Z M 63.289063 10.363281 C 64.972656 10.363281 66.347656 11.742188 66.347656 13.421875 L 66.347656 37.136719 C 66.347656 38.820313 64.972656 40.199219 63.289063 40.199219 C 61.605469 40.199219 60.226563 38.820313 60.226563 37.136719 L 60.226563 13.421875 C 60.226563 11.742188 61.605469 10.363281 63.289063 10.363281 Z M 63.289063 10.363281 "/>
<g clip-path="url(#clip1)" clip-rule="nonzero">
<path style=" stroke:none;fill-rule:evenodd;fill:rgb(0%,44.700623%,73.631287%);fill-opacity:1;" d="M 0.03125 131.601563 L 170.367188 131.601563 L 170.367188 61.660156 L 0.03125 61.660156 Z M 0.03125 131.601563 "/>
</g>
<path style=" stroke:none;fill-rule:evenodd;fill:rgb(100%,100%,100%);fill-opacity:1;" d="M 38.023438 107.867188 L 51.371094 88.265625 C 52.320313 86.875 54.230469 86.511719 55.625 87.460938 C 57.015625 88.40625 57.378906 90.320313 56.429688 91.710938 L 43.082031 111.3125 C 38.847656 117.539063 31.277344 117.484375 27.074219 111.3125 L 13.726563 91.710938 C 12.78125 90.320313 13.144531 88.40625 14.535156 87.460938 C 15.925781 86.511719 17.839844 86.875 18.785156 88.265625 L 32.132813 107.867188 C 34.402344 111.203125 35.582031 111.449219 38.023438 107.867188 Z M 59.09375 80.125 L 63.378906 76.640625 C 63.589844 76.472656 63.898438 76.503906 64.066406 76.710938 L 67.550781 80.996094 C 67.71875 81.207031 67.6875 81.515625 67.480469 81.683594 L 63.195313 85.167969 C 62.988281 85.335938 62.675781 85.304688 62.507813 85.097656 L 59.023438 80.8125 C 58.855469 80.601563 58.886719 80.292969 59.09375 80.125 Z M 127.492188 86.933594 L 142.722656 86.933594 C 150.683594 86.933594 157.199219 93.445313 157.199219 101.410156 L 157.199219 101.910156 C 157.199219 109.875 150.683594 116.390625 142.722656 116.390625 L 127.492188 116.390625 C 119.53125 116.390625 113.015625 109.875 113.015625 101.910156 L 113.015625 101.410156 C 113.015625 93.445313 119.53125 86.933594 127.492188 86.933594 Z M 127.441406 92.605469 L 142.773438 92.605469 C 147.664063 92.605469 151.667969 96.613281 151.667969 101.503906 L 151.667969 101.816406 C 151.667969 106.710938 147.664063 110.714844 142.773438 110.714844 L 127.441406 110.714844 C 122.546875 110.714844 118.542969 106.710938 118.542969 101.816406 L 118.542969 101.503906 C 118.542969 96.613281 122.546875 92.605469 127.441406 92.605469 Z M 94.441406 107.867188 L 107.789063 88.265625 C 108.734375 86.875 110.648438 86.511719 112.039063 87.460938 L 112.042969 87.460938 C 113.433594 88.40625 113.796875 90.320313 112.847656 91.710938 L 99.5 111.3125 C 95.265625 117.539063 87.695313 117.484375 83.492188 111.3125 L 70.144531 91.710938 C 69.195313 90.320313 69.558594 88.40625 70.953125 87.460938 C 72.34375 86.511719 74.257813 86.875 75.203125 88.265625 L 88.550781 107.867188 C 90.820313 111.203125 91.996094 111.449219 94.441406 107.867188 Z M 63.289063 86.894531 C 64.972656 86.894531 66.347656 88.273438 66.347656 89.957031 L 66.347656 113.667969 C 66.347656 115.351563 64.972656 116.730469 63.289063 116.730469 C 61.605469 116.730469 60.226563 115.351563 60.226563 113.667969 L 60.226563 89.957031 C 60.226563 88.273438 61.605469 86.894531 63.289063 86.894531 Z M 63.289063 86.894531 "/>
</g>
</svg>
