<?xml version="1.0" encoding="UTF-8"?>
<svg xmlns="http://www.w3.org/2000/svg" xmlns:xlink="http://www.w3.org/1999/xlink" width="128.88pt" height="63pt" viewBox="0 0 128.88 63" version="1.1">
<defs>
<clipPath id="clip1">
  <path d="M 0 0 L 128.878906 0 L 128.878906 63 L 0 63 Z M 0 0 "/>
</clipPath>
</defs>
<g id="surface1">
<g clip-path="url(#clip1)" clip-rule="nonzero">
<path style=" stroke:none;fill-rule:nonzero;fill:rgb(7.499695%,29.798889%,61.199951%);fill-opacity:1;" d="M 75.628906 18.277344 C 74.074219 16.910156 72.8125 15.199219 72.832031 14.476563 C 72.886719 12.132813 78.03125 4.410156 80.773438 2.558594 C 83.09375 0.992188 84.464844 0.757813 91.410156 0.757813 L 99.382813 0.757813 L 98.226563 2.558594 C 97.589844 3.546875 95.527344 6.964844 93.644531 10.152344 C 87.253906 20.980469 81.605469 23.523438 75.628906 18.277344 Z M 48.421875 33.90625 C 47.375 32.777344 44.984375 29.269531 43.109375 26.105469 C 41.234375 22.945313 37.070313 16.21875 33.855469 11.160156 L 28.015625 1.957031 L 34.800781 1.726563 C 38.535156 1.601563 42.296875 1.875 43.164063 2.339844 C 44.03125 2.804688 45.886719 4.851563 47.289063 6.886719 C 49.835938 10.589844 49.835938 10.59375 48.429688 13.210938 C 47.15625 15.574219 47.136719 15.996094 48.234375 17.566406 C 49.898438 19.941406 51.925781 21.25 54.953125 21.910156 C 58.550781 22.691406 61.367188 27.40625 59.886719 30.171875 C 56.671875 36.171875 51.949219 37.714844 48.421875 33.90625 Z M 71.585938 34.949219 C 70.429688 33.953125 67.75 30.085938 65.632813 26.347656 L 61.777344 19.558594 L 57.871094 19.816406 C 54.824219 20.015625 53.480469 19.695313 51.78125 18.359375 C 50.582031 17.414063 49.609375 16.21875 49.625 15.699219 C 49.636719 15.183594 51.96875 11.617188 54.804688 7.777344 C 62.011719 -1.984375 64.953125 -2.394531 70.226563 5.628906 C 72.796875 9.535156 72.824219 9.667969 71.507813 11.902344 C 70.214844 14.085938 70.234375 14.300781 71.960938 17.097656 C 73.0625 18.878906 75.285156 20.785156 77.664063 21.992188 C 79.929688 23.136719 82.0625 24.933594 82.757813 26.277344 C 83.890625 28.46875 83.832031 28.75 81.550781 31.902344 C 79.4375 34.816406 76.578125 36.757813 74.390625 36.757813 C 74.003906 36.757813 72.742188 35.945313 71.585938 34.949219 Z M 107.734375 61.824219 C 107.441406 61.53125 107.199219 56.851563 107.199219 51.425781 L 107.199219 41.558594 L 111.011719 41.558594 C 114.699219 41.558594 114.933594 41.703125 118.410156 46.160156 L 122 50.757813 L 122.238281 46.160156 L 122.480469 41.558594 L 128.800781 41.558594 L 128.800781 62.359375 L 125.800781 62.378906 C 123.148438 62.398438 122.3125 61.863281 118.621094 57.78125 L 114.4375 53.160156 L 114.417969 57.757813 L 114.398438 62.359375 L 111.332031 62.359375 C 109.648438 62.359375 108.027344 62.117188 107.734375 61.824219 Z M 97.457031 55.265625 C 98.117188 54.84375 98.414063 53.429688 98.253906 51.476563 L 98 48.359375 L 94.398438 48.359375 C 90.910156 48.359375 90.792969 48.4375 90.546875 51.011719 C 90.40625 52.46875 90.71875 54.179688 91.242188 54.8125 C 92.285156 56.066406 95.785156 56.324219 97.457031 55.265625 Z M 87.453125 61.59375 C 84.746094 60.441406 84 58.199219 84 51.210938 C 84 42.21875 84.730469 41.558594 94.675781 41.558594 C 104.453125 41.558594 104.800781 41.90625 104.800781 51.699219 C 104.800781 61.050781 104.054688 61.871094 95.320313 62.144531 C 91.953125 62.25 88.414063 62.003906 87.453125 61.59375 Z M 68.800781 54.804688 L 68.800781 47.160156 L 65.601563 47.160156 C 62.476563 47.160156 62.398438 47.089844 62.398438 44.359375 L 62.398438 41.558594 L 81.601563 41.558594 L 81.601563 44.359375 C 81.601563 47.019531 81.460938 47.160156 78.828125 47.160156 L 76.058594 47.160156 L 75.828125 54.558594 L 75.601563 61.957031 L 72.199219 62.203125 L 68.800781 62.449219 Z M 52.800781 51.957031 L 52.800781 41.558594 L 59.199219 41.558594 L 59.199219 55.957031 L 66.398438 55.957031 L 66.398438 62.359375 L 52.800781 62.359375 Z M 40.738281 52.558594 C 40.707031 52.007813 40.226563 50.304688 39.671875 48.773438 L 38.667969 45.988281 L 38.09375 48.371094 C 37.78125 49.683594 37.335938 51.386719 37.109375 52.160156 C 36.789063 53.234375 37.164063 53.558594 38.746094 53.558594 C 39.886719 53.558594 40.773438 53.113281 40.738281 52.558594 Z M 28.011719 60.957031 C 28.015625 60.1875 29.210938 55.597656 30.664063 50.757813 L 33.304688 41.957031 L 44.34375 41.957031 L 47.367188 51.957031 C 49.027344 57.457031 50.390625 62.046875 50.394531 62.160156 C 50.398438 62.269531 48.808594 62.359375 46.863281 62.359375 C 43.585938 62.359375 43.289063 62.183594 42.800781 59.957031 C 42.3125 57.746094 42.003906 57.558594 38.835938 57.558594 C 35.65625 57.558594 35.363281 57.738281 34.921875 59.957031 C 34.480469 62.148438 34.15625 62.359375 31.21875 62.359375 C 28.683594 62.359375 28.003906 62.0625 28.011719 60.957031 Z M 5.878906 61.398438 C 5.050781 60.300781 0 43.972656 0 42.390625 C 0 41.800781 1.210938 41.554688 3.363281 41.710938 L 6.726563 41.957031 L 7.921875 46.558594 C 8.578125 49.089844 9.332031 51.160156 9.59375 51.160156 C 9.855469 51.160156 10.59375 49.089844 11.234375 46.558594 C 12.371094 42.078125 12.476563 41.953125 15.359375 41.710938 L 18.316406 41.46875 L 19.832031 46.511719 L 21.347656 51.558594 L 22.777344 46.558594 L 24.210938 41.558594 L 27.707031 41.558594 C 29.628906 41.558594 31.195313 41.648438 31.191406 41.757813 C 31.1875 41.867188 29.828125 46.457031 28.171875 51.957031 L 25.15625 61.957031 L 22.476563 62.214844 C 19.210938 62.53125 18.359375 61.753906 16.75 56.984375 L 15.5 53.277344 L 13.945313 57.617188 C 12.492188 61.675781 12.203125 61.972656 9.527344 62.199219 C 7.851563 62.339844 6.335938 62.007813 5.878906 61.398438 "/>
</g>
<path style=" stroke:none;fill-rule:nonzero;fill:rgb(71.798706%,12.5%,14.498901%);fill-opacity:1;" d="M 71.585938 34.949219 C 70.429688 33.953125 67.75 30.085938 65.632813 26.347656 L 61.777344 19.558594 L 57.871094 19.816406 C 54.824219 20.015625 53.480469 19.695313 51.78125 18.359375 C 50.582031 17.414063 49.609375 16.21875 49.625 15.699219 C 49.636719 15.183594 51.96875 11.617188 54.804688 7.777344 C 62.011719 -1.984375 64.953125 -2.394531 70.226563 5.628906 C 72.796875 9.535156 72.824219 9.667969 71.507813 11.902344 C 70.214844 14.085938 70.234375 14.300781 71.960938 17.097656 C 73.0625 18.878906 75.285156 20.785156 77.664063 21.992188 C 79.929688 23.136719 82.0625 24.933594 82.757813 26.277344 C 83.890625 28.46875 83.832031 28.75 81.550781 31.902344 C 79.4375 34.816406 76.578125 36.757813 74.390625 36.757813 C 74.003906 36.757813 72.742188 35.945313 71.585938 34.949219 "/>
</g>
</svg>
