<svg id="Layer_1" data-name="Layer 1" xmlns="http://www.w3.org/2000/svg" viewBox="0 0 166 162"><defs><style>.cls-1{fill:#0059a1;fill-rule:evenodd;}</style></defs><path d="M28,121.71V145.9H22.53V121.71Z"/><path d="M36.69,134c0-2.19-.08-4.06-.15-5.6h4.74l.25,2.41h.11a6.41,6.41,0,0,1,5.42-2.8c3.59,0,6.28,2.36,6.28,7.53V145.9H47.88v-9.73c0-2.26-.79-3.8-2.76-3.8a2.89,2.89,0,0,0-2.76,2,3.59,3.59,0,0,0-.22,1.36V145.9H36.69Z"/><path d="M78.73,120.42v20.24c0,2,.07,4.06.14,5.24H74l-.25-2.58h-.07a6.14,6.14,0,0,1-5.5,3c-4.16,0-7.5-3.55-7.5-9,0-5.92,3.66-9.33,7.86-9.33,2.16,0,3.84.75,4.63,2h.07v-9.51Zm-5.46,15.36a7.91,7.91,0,0,0-.07-1A3.27,3.27,0,0,0,70,132.12c-2.48,0-3.77,2.22-3.77,5,0,3,1.47,4.84,3.73,4.84a3.19,3.19,0,0,0,3.16-2.62,4.52,4.52,0,0,0,.14-1.25Z"/><path d="M87.11,145.9V128.35h5.45V145.9Z"/><path d="M87.11,126v-5.55h5.45V126Z"/><path d="M117.7,128.35c-.07,1.11-.14,2.58-.14,5.2v9.8c0,3.38-.68,6.14-2.66,7.9a10.8,10.8,0,0,1-7.14,2.15,13.77,13.77,0,0,1-6.31-1.36l1.07-4.13a10.74,10.74,0,0,0,5.1,1.33c2.58,0,4.56-1.4,4.56-4.63v-1.15h-.07a5.63,5.63,0,0,1-4.74,2.3c-4.34,0-7.43-3.52-7.43-8.58,0-5.64,3.66-9.22,8-9.22a5.28,5.28,0,0,1,4.8,2.47h.08l.18-2.08Zm-5.59,7.14a4.37,4.37,0,0,0-.11-1,3,3,0,0,0-3-2.41c-2,0-3.58,1.8-3.58,5,0,2.62,1.29,4.67,3.58,4.67a3,3,0,0,0,2.88-2.23,4.71,4.71,0,0,0,.18-1.43Z"/><path d="M143.27,136.93c0,6.42-4.55,9.36-9.25,9.36-5.14,0-9.08-3.37-9.08-9s3.73-9.29,9.36-9.29A8.52,8.52,0,0,1,143.27,136.93Zm-12.7.18c0,3,1.26,5.27,3.59,5.27,2.12,0,3.48-2.11,3.48-5.27,0-2.62-1-5.28-3.48-5.28C131.54,131.83,130.57,134.52,130.57,137.11Z"/><path class="cls-1" d="M8.17,22.18V93.06c0,8.67,3.29,13.16,11.06,13.16H66.78l2.09-6.58a42.73,42.73,0,0,1-29.9-41C39,39.83,51.23,25.48,66.78,18.9l2.09-5.69H18c-4.48,0-9.86,4.49-9.86,9Zm150.42,0c0-4.48-4.49-9-9-9H88.91l-2.4,5.69c26.62,1.18,41,20.93,41,39.77,0,16.75-12.24,39.77-37.66,41l-3.31,6.58h61.92c6.87,0,10.16-4.49,10.16-13.16V22.18ZM85.85,46.5c.51-3.08-2.63-5.47-5.91-5.47H73.36l9.86-27.82H73.36L51.23,76.31l9.24,0L71,46.41h5.69L65.58,76.31h9.87s10.2-28.63,10.4-29.81ZM94.29,41,72.16,106.22H82l9-28.71h11.07c4.48,0,5.56-3,6.7-6.4.9-2.37,8-23.57,8.35-24.72.66-2.46-1.39-5.24-5.19-5.36-3.29-.11-17.64,0-17.64,0ZM93.1,73l9-26.71,5.69.1L98.78,73Z"/></svg>