<?xml version="1.0" encoding="UTF-8"?>
<svg version="1.1" xmlns="http://www.w3.org/2000/svg" width="4079" height="1812">
<path d="M0 0 C6.78784309 3.97598445 13.61472747 7.88236022 20.44921875 11.77734375 C32.77494986 18.80503352 45.07144532 25.8822515 57.35644531 32.98095703 C62.76092516 36.10308978 68.16766593 39.22130256 73.57421875 42.33984375 C80.0518876 46.0762129 86.52911858 49.81332722 93.00390625 53.5546875 C104.81051359 60.37487012 116.63448875 67.16307635 128.47894287 73.91720581 C137.51893583 79.07400983 146.51947196 84.29528144 155.50097656 89.55322266 C163.12327653 94.00900719 170.77953186 98.40381521 178.44921875 102.77734375 C190.77447071 109.80587882 203.07143942 116.88224809 215.35644531 123.98095703 C220.76092516 127.10308978 226.16766593 130.22130256 231.57421875 133.33984375 C238.0518876 137.0762129 244.52911858 140.81332722 251.00390625 144.5546875 C262.81051359 151.37487012 274.63448875 158.16307635 286.47894287 164.91720581 C295.51893583 170.07400983 304.51947196 175.29528144 313.50097656 180.55322266 C321.12327653 185.00900719 328.77953186 189.40381521 336.44921875 193.77734375 C348.77447071 200.80587882 361.07143942 207.88224809 373.35644531 214.98095703 C377.6777001 217.47731772 382.00040695 219.9711561 386.32348633 222.46435547 C388.48008327 223.70858962 390.63617589 224.95369833 392.79174805 226.19970703 C397.79702455 229.09181303 402.80607293 231.97647443 407.83285522 234.83102417 C409.59221294 235.83062543 411.35002944 236.83288573 413.10742188 237.8359375 C415.29713688 239.08469063 417.48963288 240.32858642 419.68554688 241.56640625 C434.73199115 250.16713548 448.92996615 259.6686751 454.57421875 276.83984375 C457.15834814 287.33237148 456.85506698 297.96872943 456.82869434 308.69019127 C456.83108632 310.71064129 456.83435288 312.73109044 456.83841094 314.7515378 C456.84702555 320.30556214 456.8432067 325.85951885 456.83735522 331.41354422 C456.83318435 337.45524972 456.84058719 343.49694288 456.84650773 349.53864539 C456.85527414 360.12827209 456.85664883 370.71787689 456.85300446 381.30750465 C456.84912611 392.66778431 456.84958653 404.02805145 456.85531425 415.38833046 C456.85567308 416.10638829 456.85603191 416.82444612 456.85640161 417.56426328 C456.85787655 420.48890026 456.85938095 423.41353722 456.86092307 426.33817417 C456.8765531 456.0156672 456.87923758 485.69315164 456.87676701 515.37064805 C456.87642856 519.47040838 456.87610646 523.5701687 456.87580132 527.66992903 C456.87570976 528.89141334 456.87570976 528.89141334 456.87561634 530.13757411 C456.8743442 548.18775625 456.87694627 566.23793721 456.88032739 584.288119 C456.88109813 588.41016281 456.88184286 592.53220663 456.88259241 596.65425045 C456.8828941 598.30860341 456.88319598 599.96295637 456.88349805 601.61730934 C456.88364773 602.43734464 456.88379741 603.25737994 456.88395162 604.10226479 C456.88425515 605.76097365 456.88455984 607.4196825 456.88486567 609.07839136 C456.89353837 656.14145563 456.89818281 703.20451887 456.89391804 750.26758385 C456.89383998 751.13898722 456.89376192 752.01039059 456.8936815 752.90820013 C456.89280871 762.62520147 456.89187944 772.34220281 456.89093087 782.05920415 C456.89084536 782.93650102 456.89075985 783.81379789 456.89067175 784.71767952 C456.88996096 792.00717346 456.88996096 792.00717346 456.88962952 795.36125015 C456.88409328 851.48074876 456.89163736 907.60023092 456.91040039 963.71972656 C456.91512261 977.86122319 456.91980313 992.00271982 456.92423725 1006.14421654 C456.92451057 1007.01496689 456.9247839 1007.88571725 456.9250655 1008.78285397 C456.93343662 1035.61936374 456.93811644 1062.45587213 456.93894482 1089.29238319 C456.93897118 1090.13491405 456.93899755 1090.9774449 456.93902471 1091.84550699 C456.93956549 1110.34084833 456.93919305 1128.83618957 456.937985 1147.33153088 C456.93755938 1153.94939845 456.93719425 1160.56726603 456.93685556 1167.18513361 C456.93677026 1168.83148142 456.93668132 1170.47782923 456.93658874 1172.12417705 C456.93514004 1198.35599353 456.94226569 1224.58779883 456.9535927 1250.81961263 C456.96524166 1277.97280393 456.96580758 1305.12597528 456.95374928 1332.27916668 C456.95249745 1335.19562941 456.95129397 1338.11209215 456.95012856 1341.02855492 C456.94983826 1341.74430095 456.94954797 1342.46004699 456.94924888 1343.1974823 C456.94492529 1354.52579632 456.95065115 1365.85408197 456.96056875 1377.18239154 C456.97011133 1388.32438788 456.96867216 1399.46634086 456.95636252 1410.60833829 C456.9500858 1416.56722373 456.94855764 1422.52600635 456.96022586 1428.48488598 C456.9707477 1433.9081334 456.96741002 1439.3311907 456.95312133 1444.75442789 C456.95039769 1446.70187473 456.95267268 1448.64933681 456.96062848 1450.5967693 C457.03050111 1468.95659919 455.51241902 1485.49698275 442.23046875 1499.42578125 C437.16982744 1504.02501115 431.45353213 1507.41503664 425.57421875 1510.83984375 C424.66462402 1511.37206543 423.7550293 1511.90428711 422.81787109 1512.45263672 C416.81444314 1515.95585242 410.79083532 1519.42298645 404.75694275 1522.87342834 C398.68621511 1526.34525336 392.63011965 1529.84224452 386.57421875 1533.33984375 C384.40761717 1534.58995657 382.24095039 1535.83995638 380.07421875 1537.08984375 C379.00171875 1537.70859375 377.92921875 1538.32734375 376.82421875 1538.96484375 C289.07421876 1589.58984374 289.07421876 1589.58984374 285.82373047 1591.46508789 C283.65864804 1592.71419893 281.49360893 1593.96338504 279.32861328 1595.21264648 C273.88806169 1598.35186684 268.44674659 1601.48974938 263.00390625 1604.625 C252.55215676 1610.64731704 242.11122327 1616.68653712 231.69921875 1622.77734375 C222.42857944 1628.19943074 213.11485176 1633.54308387 203.78375244 1638.8600769 C195.68714032 1643.47468404 187.61633074 1648.13069261 179.57421875 1652.83984375 C170.34621346 1658.24340835 161.07427205 1663.56636736 151.78320312 1668.86035156 C143.68677742 1673.47487179 135.61615366 1678.1307963 127.57421875 1682.83984375 C118.34621346 1688.24340835 109.07427205 1693.56636736 99.78320312 1698.86035156 C91.68677742 1703.47487179 83.61615366 1708.1307963 75.57421875 1712.83984375 C66.34621346 1718.24340835 57.07427205 1723.56636736 47.78320312 1728.86035156 C39.68677742 1733.47487179 31.61615366 1738.1307963 23.57421875 1742.83984375 C14.35065791 1748.24080584 5.08424606 1753.56320553 -4.20370483 1758.85229492 C-11.5509449 1763.0369046 -18.87487289 1767.25799478 -26.16723633 1771.5378418 C-64.00308941 1793.73884598 -64.00308941 1793.73884598 -82.54296875 1790.25390625 C-98.51356846 1785.91277067 -112.9304761 1775.8817437 -127.0546875 1767.578125 C-133.45044878 1763.81863411 -139.87214682 1760.10527586 -146.30078125 1756.40234375 C-147.92004517 1755.46914307 -147.92004517 1755.46914307 -149.57202148 1754.51708984 C-151.76242875 1753.25486542 -153.95293997 1751.99282138 -156.14355469 1750.73095703 C-161.57238067 1747.60304227 -166.99897406 1744.47125927 -172.42578125 1741.33984375 C-174.59243708 1740.08982496 -176.75910375 1738.83982497 -178.92578125 1737.58984375 C-286.17578125 1675.71484375 -393.42578125 1613.83984375 -529.92578125 1535.08984375 C-530.99940918 1534.47061035 -532.07303711 1533.85137695 -533.17919922 1533.21337891 C-535.33505888 1531.96927701 -537.49033746 1530.72416761 -539.64501953 1529.47802734 C-544.63907131 1526.59134901 -549.63750129 1523.71384503 -554.65863037 1520.87445068 C-556.41061463 1519.88306767 -558.16064737 1518.88832199 -559.91015625 1517.89257812 C-562.08607757 1516.65546157 -564.26548363 1515.42444285 -566.44921875 1514.20117188 C-580.9327752 1505.94218511 -595.14787481 1496.41001513 -600.42578125 1479.83984375 C-602.01743996 1472.72334417 -602.71695255 1465.89280448 -602.68305016 1458.61349201 C-602.68655623 1457.64153189 -602.6900623 1456.66957178 -602.69367462 1455.66815832 C-602.70294075 1452.42782806 -602.69807768 1449.18767942 -602.69320679 1445.94734192 C-602.69694545 1443.5939889 -602.70154783 1441.24063713 -602.70693743 1438.88728732 C-602.71787663 1433.10855048 -602.71954133 1427.32986338 -602.71721572 1421.55111787 C-602.71493706 1414.62503503 -602.72423817 1407.69897961 -602.73377446 1400.7729047 C-602.75309323 1386.41387872 -602.75874188 1372.05486705 -602.75988857 1357.69582961 C-602.76080848 1346.60497878 -602.76492941 1335.51413354 -602.77128983 1324.42328453 C-602.77308498 1321.22811578 -602.7748646 1318.03294703 -602.77663958 1314.83777827 C-602.77708168 1314.04339767 -602.77752377 1313.24901707 -602.77797927 1312.43056433 C-602.79028372 1290.09301933 -602.79818079 1267.75547628 -602.79729271 1245.41792774 C-602.79726155 1244.5761442 -602.79723039 1243.73436067 -602.79719829 1242.86706854 C-602.79703208 1238.60078539 -602.796834 1234.33450225 -602.79662888 1230.0682191 C-602.79658899 1229.22095545 -602.7965491 1228.3736918 -602.796508 1227.50075349 C-602.79642712 1225.78738066 -602.79634353 1224.07400784 -602.79625721 1222.36063502 C-602.79503188 1195.70711702 -602.8100433 1169.05364992 -602.83740234 1142.40014648 C-602.86814444 1112.43865989 -602.88533357 1082.47720674 -602.8834759 1052.51570338 C-602.88332664 1049.31896285 -602.88322923 1046.12222233 -602.88316727 1042.9254818 C-602.88314396 1042.13839314 -602.88312065 1041.35130449 -602.88309663 1040.54036467 C-602.88303517 1027.89187055 -602.89578918 1015.24342074 -602.9130318 1002.59493979 C-602.93001145 989.87602996 -602.93194387 977.15718474 -602.91881315 964.43826983 C-602.91208689 957.55227626 -602.91163171 950.6664286 -602.92951965 943.78045082 C-602.94526304 937.47062924 -602.94237331 931.16109446 -602.92495139 924.85127982 C-602.92188436 922.5747563 -602.92550256 920.2982113 -602.93667154 918.02171312 C-603.0843924 885.76340977 -603.0843924 885.76340977 -592.42578125 872.83984375 C-591.80316406 872.01871094 -591.18054688 871.19757812 -590.5390625 870.3515625 C-581.81832921 859.98662441 -568.13377434 854.01036173 -556.50341797 847.56347656 C-551.54242691 844.7850697 -546.64116744 841.90666768 -541.73828125 839.02734375 C-533.00014174 833.90669082 -524.22570767 828.85322903 -515.42578125 823.83984375 C-506.73167869 818.88620821 -498.06080666 813.89605871 -489.42578125 808.83984375 C-480.83060835 803.80794585 -472.20265903 798.83595251 -463.55078125 793.90234375 C-451.22552929 786.87380868 -438.92856058 779.79743941 -426.64355469 772.69873047 C-421.2390748 769.5765977 -415.83230713 766.45843171 -410.42578125 763.33984375 C-408.25910375 762.08986253 -406.09243708 760.83986254 -403.92578125 759.58984375 C-130.92578125 602.08984375 -130.92578125 602.08984375 -127.671875 600.21264648 C-125.51816405 598.97008356 -123.36451758 597.72740886 -121.2109375 596.48461914 C-116.18893863 593.58669752 -111.16635318 590.68981026 -106.14135742 587.79708862 C-104.37532603 586.78037177 -102.60950694 585.76328717 -100.84375 584.74609375 C-98.6384397 583.47583502 -96.43273909 582.20625357 -94.2265625 580.9375 C-88.56164116 577.67346081 -82.94254591 574.35555483 -77.38671875 570.90844727 C-75.42578125 569.83984375 -75.42578125 569.83984375 -73.42578125 569.83984375 C-73.42730013 568.64714129 -73.42881901 567.45443883 -73.43038392 566.22559386 C-73.49707037 513.65314885 -73.55878 461.08070013 -73.59515381 408.50822449 C-73.59598215 407.31404943 -73.59598215 407.31404943 -73.59682723 406.09574962 C-73.60879929 388.79334297 -73.61987996 371.49093585 -73.63004257 354.18852805 C-73.63503185 345.7032406 -73.64021807 337.21795328 -73.64550781 328.73266602 C-73.64603085 327.88828492 -73.64655388 327.04390382 -73.64709277 326.17393542 C-73.66413343 298.81276072 -73.69417514 271.45161909 -73.73097013 244.09046442 C-73.76871792 215.96968042 -73.79332707 187.84891471 -73.80144121 159.7281058 C-73.8025938 155.75482508 -73.80389635 151.78154442 -73.80529022 147.80826378 C-73.80569476 146.63528377 -73.80569476 146.63528377 -73.80610747 145.43860719 C-73.81083148 132.85864611 -73.82937601 120.27874166 -73.85310939 107.69880366 C-73.87668277 95.04694409 -73.88564706 82.39514058 -73.87978676 69.74325982 C-73.87701518 62.89011193 -73.88063895 56.03711554 -73.90260315 49.18399811 C-73.92208926 42.90721194 -73.92303748 36.63070324 -73.90937683 30.35390421 C-73.90768881 28.08584922 -73.91274519 25.81777682 -73.92531398 23.54975603 C-74.0662585 -3.45880789 -74.0662585 -3.45880789 -66.23828125 -13.72265625 C-46.54554319 -33.49901528 -18.32141249 -10.75018352 0 0 Z M-72.42578125 570.83984375 C-72.49426895 620.99423506 -72.55794957 671.14862966 -72.59515381 721.30305481 C-72.59570604 722.04560149 -72.59625827 722.78814817 -72.59682723 723.55319627 C-72.60879944 739.69154132 -72.61988008 755.82988688 -72.63004257 771.96823318 C-72.63503182 779.8827122 -72.64021805 787.79719109 -72.64550781 795.71166992 C-72.64603085 796.499247 -72.64655388 797.28682407 -72.64709277 798.09826712 C-72.66413184 823.61637434 -72.69417236 849.1344461 -72.73097013 874.65253184 C-72.76872239 900.88022216 -72.7933281 927.10789285 -72.80144121 953.33560989 C-72.80259379 957.0418533 -72.80389634 960.74809665 -72.80529022 964.45433998 C-72.80555991 965.18376694 -72.80582961 965.91319389 -72.80610747 966.66472469 C-72.81083052 978.3966799 -72.82937244 990.12857434 -72.85310939 1001.86050478 C-72.87668917 1013.66100931 -72.88532212 1025.4614484 -72.87978676 1037.26197561 C-72.87722405 1043.65337198 -72.8811611 1050.04459031 -72.90260315 1056.43595505 C-72.92210182 1062.29085112 -72.92302941 1068.14544978 -72.90937683 1074.00035969 C-72.90769003 1076.11498407 -72.9127358 1078.22962718 -72.92531398 1080.34421482 C-73.26901732 1100.39462297 -73.26901732 1100.39462297 -64.42578125 1117.83984375 C-56.94034402 1123.38180032 -50.69541916 1124.6914462 -41.42578125 1123.83984375 C-31.97583034 1121.12339312 -23.53824672 1116.35961451 -15.11328125 1111.40234375 C-13.88655369 1110.68991773 -12.65932989 1109.97834559 -11.43164062 1109.26757812 C-8.33882391 1107.47401997 -5.25245028 1105.66972041 -2.168396 1103.86114502 C0.46596968 1102.31721168 3.10419142 1100.77990737 5.7421875 1099.2421875 C8.66178366 1097.53955541 11.58080612 1095.83598869 14.49780273 1094.12890625 C22.12058962 1089.67132738 29.77838399 1085.27652685 37.44921875 1080.90234375 C46.54501862 1075.71541949 55.63134138 1070.51302869 64.69921875 1065.27734375 C65.76527344 1064.66181641 66.83132813 1064.04628906 67.9296875 1063.41210938 C71.14479398 1061.55514181 74.35957253 1059.69760796 77.57421875 1057.83984375 C91.52266243 1049.77895071 105.48425763 1041.74274949 119.47894287 1033.76248169 C127.53685087 1029.16590152 135.56839661 1024.52660215 143.57421875 1019.83984375 C153.3492464 1014.11735926 163.17208831 1008.48140935 173.01171875 1002.87109375 C180.8795928 998.38428638 188.73247277 993.87219617 196.57421875 989.33984375 C205.59952721 984.12341889 214.64349678 978.940694 223.69921875 973.77734375 C232.35117734 968.84387641 240.9789938 963.87164962 249.57421875 958.83984375 C258.16944547 953.80803685 266.79734005 948.83595303 275.44921875 943.90234375 C284.54501862 938.71541949 293.63134138 933.51302869 302.69921875 928.27734375 C304.29830078 927.35405273 304.29830078 927.35405273 305.9296875 926.41210938 C309.14479398 924.55514181 312.35957253 922.69760796 315.57421875 920.83984375 C319.8654465 918.35991633 324.15713669 915.88079228 328.44921875 913.40234375 C329.50802246 912.79044189 330.56682617 912.17854004 331.65771484 911.5480957 C337.40697075 908.229416 343.16652266 904.93005492 348.94140625 901.65625 C372.93805469 889.83608296 372.93805469 889.83608296 392.32421875 872.33984375 C392.90429688 871.52 392.90429688 871.52 393.49609375 870.68359375 C397.07495763 864.56321785 397.39890019 858.79321039 396.57421875 851.83984375 C392.60400014 838.96894902 382.10769232 832.52069835 371.03466797 826.23876953 C368.2592935 824.66078821 365.49650576 823.06198575 362.734375 821.4609375 C357.16272648 818.23400656 351.58313474 815.02108211 346.00146484 811.81152344 C340.52266078 808.65959143 335.04860762 805.49943578 329.57421875 802.33984375 C327.40757649 801.08980145 325.24090978 799.83980151 323.07421875 798.58984375 C258.07421876 761.08984375 258.07421876 761.08984375 254.82470703 759.21508789 C252.65645611 757.96419895 250.48816178 756.71338523 248.31982422 755.46264648 C242.9270396 752.3518604 237.53499782 749.23980137 232.14453125 746.125 C220.33792391 739.30481738 208.51394875 732.51661115 196.66949463 725.76248169 C187.63092447 720.6064893 178.63144737 715.38663702 169.65185547 710.12866211 C161.98819623 705.64794982 154.28727237 701.23468619 146.57421875 696.83984375 C137.88020189 691.88605552 129.20924646 686.89606006 120.57421875 681.83984375 C111.97904585 676.80794585 103.35109653 671.83595251 94.69921875 666.90234375 C82.37396679 659.87380868 70.07699808 652.79743941 57.79199219 645.69873047 C52.3875123 642.5765977 46.98074463 639.45843171 41.57421875 636.33984375 C39.40754125 635.08986253 37.24087458 633.83986254 35.07421875 632.58984375 C34.00171875 631.97109375 32.92921875 631.35234375 31.82421875 630.71484375 C19.90755208 623.83984375 7.99088542 616.96484375 -3.92578125 610.08984375 C-4.99860352 609.47093262 -6.07142578 608.85202148 -7.17675781 608.21435547 C-9.34025601 606.96613341 -11.50366768 605.71776136 -13.66699219 604.46923828 C-19.13143142 601.31579119 -24.5974177 598.16508279 -30.06640625 595.01953125 C-41.70343213 588.32222724 -53.31338333 581.58677658 -64.83886719 574.69873047 C-65.69383789 574.18971191 -66.54880859 573.68069336 -67.4296875 573.15625 C-68.18064697 572.70709229 -68.93160645 572.25793457 -69.70532227 571.79516602 C-71.2435088 570.75893486 -71.2435088 570.75893486 -72.42578125 570.83984375 Z " fill="#F85606" transform="translate(602.42578125,21.16015625)"/>
<path d="M0 0 C1.02036716 -0.00397441 2.04073432 -0.00794881 3.0920217 -0.01204365 C6.49286803 -0.02162608 9.89329411 -0.00987207 13.29412842 0.00190735 C15.74098363 -0.00052225 18.18783785 -0.00424319 20.63468933 -0.00915527 C26.5849191 -0.01757871 32.53498603 -0.01205781 38.48519704 0.00010767 C45.44219528 0.01379432 52.39916519 0.01208335 59.35617349 0.00997434 C71.79987201 0.00678623 84.2435133 0.01843242 96.68719482 0.03804016 C108.69860587 0.05696129 120.70994962 0.06414899 132.72137451 0.05854797 C145.84096853 0.05244817 158.96053299 0.05274956 172.08012462 0.06403381 C173.48840125 0.06524084 174.89667789 0.06644683 176.30495453 0.06765175 C176.99753889 0.06825529 177.69012324 0.06885883 178.403695 0.06948065 C183.22324779 0.07331713 188.04278928 0.07294509 192.86234283 0.0710659 C248.93615152 0.0545873 248.93615152 0.0545873 271.50799561 2.3742218 C272.32385919 2.45622896 273.13972277 2.53823612 273.98030949 2.62272835 C278.27413695 3.06217877 282.54685372 3.58199974 286.82049561 4.1867218 C288.66792358 4.44219788 288.66792358 4.44219788 290.55267334 4.70283508 C322.99255209 9.35414892 355.56939198 17.65603745 384.50799561 33.3742218 C385.1699292 33.72597473 385.83186279 34.07772766 386.51385498 34.44013977 C408.48797005 46.13688762 429.77068518 61.9340148 445.50799561 81.3742218 C446.41943845 82.47319298 447.33089842 83.57214996 448.24237061 84.6710968 C502.47192238 150.65242503 518.11882457 239.83089249 525.69549561 322.6242218 C525.77430969 323.46278717 525.85312378 324.30135254 525.93432617 325.16532898 C529.37994571 362.32736252 529.8166326 399.54418555 529.77664661 436.83644485 C529.77146735 443.21256405 529.77631024 449.58867846 529.77941895 455.96479797 C529.7832536 467.33688473 529.77716429 478.70893329 529.76690027 490.08101356 C529.75797097 500.28846563 529.75952493 510.49587212 529.76873779 520.70332336 C529.77956094 532.69965801 529.78336213 544.69595854 529.77751327 556.69229984 C529.77444656 562.99028676 529.77383334 569.28824268 529.78058624 575.58622742 C529.86517355 667.02539756 524.69916367 761.14997936 447.50799561 924.3742218 C446.82608154 925.16699524 446.14416748 925.95976868 445.44158936 926.77656555 C443.17393858 929.35325161 440.85656875 931.8709953 438.50799561 934.3742218 C438.01734619 934.89887024 437.52669678 935.42351868 437.0211792 935.96406555 C397.76029297 977.59238202 342.70547202 996.60101358 287.25799561 1004.5617218 C286.20265625 1004.716651 285.14731689 1004.8715802 284.05999756 1005.03120422 C262.1386006 1007.99460155 240.04817791 1008.67483215 217.95623779 1008.64888 C215.44295096 1008.65324359 212.92966545 1008.65843211 210.41638184 1008.66436768 C204.38293232 1008.67621511 198.3495482 1008.67893394 192.31609306 1008.67656741 C187.4121728 1008.67476629 182.5082659 1008.67657162 177.60434723 1008.68079185 C176.89995825 1008.68138704 176.19556927 1008.68198223 175.46983518 1008.68259546 C174.03805198 1008.68380743 172.60626879 1008.68502157 171.17448559 1008.68623783 C157.84781334 1008.6970336 144.5211666 1008.69498586 131.19449297 1008.68885299 C119.01871003 1008.68366029 106.84300651 1008.69501511 94.66723928 1008.71395121 C82.10960889 1008.73332965 69.55201613 1008.74158754 56.9943707 1008.73782796 C49.96560869 1008.73591984 42.93691469 1008.73836783 35.90816498 1008.7525425 C29.31853893 1008.7657006 22.72904687 1008.76319725 16.13941193 1008.75013161 C13.72391201 1008.74776366 11.30840082 1008.7505083 8.89291382 1008.75875473 C5.595211 1008.76920235 2.29804955 1008.76113777 -0.99963379 1008.7484436 C-1.95331447 1008.75581789 -2.90699515 1008.76319217 -3.88957524 1008.77078992 C-10.99144657 1008.71331085 -16.70844869 1007.72477995 -22.30450439 1002.9992218 C-30.2800017 993.42862503 -29.78197844 983.19752256 -29.74647999 971.33139229 C-29.74887084 969.67764966 -29.75213667 968.02390811 -29.75619659 966.37016875 C-29.76482681 961.81569609 -29.76098589 957.26130572 -29.75514086 952.70683178 C-29.75097561 947.75567399 -29.75836965 942.80453135 -29.76429337 937.85337722 C-29.77306585 929.17241558 -29.77436376 920.49147752 -29.7707901 911.81051254 C-29.76548994 898.9016675 -29.77157147 885.99284535 -29.77987303 873.08400279 C-29.79470955 849.36040968 -29.79696131 825.63682617 -29.79455265 801.91322933 C-29.79421421 798.55178045 -29.79389211 795.19033157 -29.79358697 791.82888269 C-29.79352593 791.16121975 -29.79346488 790.4935568 -29.79340199 789.80566164 C-29.79213016 775.01016104 -29.79473134 760.21466188 -29.79811304 745.4191617 C-29.79888378 742.0409628 -29.7996285 738.6627639 -29.80037805 735.28456499 C-29.80067974 733.92876102 -29.80098162 732.57295705 -29.80128369 731.21715308 C-29.80143337 730.54510624 -29.80158305 729.87305941 -29.80173727 729.18064752 C-29.8020408 727.8212866 -29.80234548 726.46192568 -29.80265131 725.10256477 C-29.81132486 686.52938063 -29.81596785 647.95619776 -29.81170368 609.38301277 C-29.81162563 608.66870358 -29.81154757 607.95439438 -29.81146715 607.21843945 C-29.81059434 599.25308584 -29.80966508 591.28773225 -29.80871651 583.32237865 C-29.808631 582.60322086 -29.80854549 581.88406307 -29.80845739 581.14311262 C-29.80774659 575.16740752 -29.80774659 575.16740752 -29.80741517 572.41811463 C-29.80187898 526.41503178 -29.80942248 480.411969 -29.82818604 434.40888977 C-29.83290821 422.81703254 -29.83758871 411.22517529 -29.8420229 399.63331795 C-29.84229622 398.91957042 -29.84256954 398.20582288 -29.84285114 397.47044664 C-29.85122166 375.47439703 -29.85590203 353.47834909 -29.85673046 331.4822979 C-29.85675683 330.7917783 -29.85678319 330.10125869 -29.85681036 329.38981426 C-29.85735113 314.23175748 -29.85697872 299.07370084 -29.85577064 283.91564411 C-29.85534502 278.49194044 -29.85497989 273.06823678 -29.8546412 267.64453311 C-29.8545559 266.29524652 -29.85446697 264.94595994 -29.85437438 263.59667335 C-29.85297029 242.75986414 -29.85936753 221.92306786 -29.87032509 201.08626175 C-29.88235931 178.16186958 -29.88395657 155.23750424 -29.87153492 132.31311168 C-29.86489172 119.4776768 -29.86657099 106.64230602 -29.88012344 93.80687624 C-29.88834264 85.23865374 -29.88570342 76.67047946 -29.87414817 68.10226091 C-29.86786661 63.21679119 -29.86635549 58.33144693 -29.8780115 53.44598426 C-29.88851843 49.00135823 -29.88521459 44.55696442 -29.87090698 40.11235095 C-29.86817894 38.51467251 -29.8704717 36.91697555 -29.87841412 35.31931452 C-29.97549845 14.3593057 -29.97549845 14.3593057 -23.36700439 6.9367218 C-22.58969971 6.0105304 -22.58969971 6.0105304 -21.79669189 5.06562805 C-15.31807343 0.31098094 -7.76895443 -0.0610504 0 0 Z M179.50799561 164.3742218 C179.50799561 387.4542218 179.50799561 610.5342218 179.50799561 840.3742218 C236.64928913 843.74572042 236.64928913 843.74572042 285.65252686 819.4757843 C303.84959981 800.39594936 309.31264373 771.81587598 312.75799561 746.6867218 C312.90905762 745.59271057 313.06011963 744.49869934 313.21575928 743.37153625 C316.46730757 717.48202286 316.80621406 691.5922803 316.76944494 665.54635131 C316.76484528 660.70710908 316.77194073 655.86788016 316.77740479 651.02864075 C316.78622194 641.59032735 316.78441138 632.15204605 316.7785795 622.71373148 C316.77403216 615.0311359 316.77346327 607.34854922 316.77562714 599.66595268 C316.77608684 598.01545924 316.77608684 598.01545924 316.77655582 596.33162249 C316.77719538 594.09516192 316.77784381 591.85870134 316.778501 589.62224077 C316.78418187 568.73089874 316.77768196 547.83957435 316.76690027 526.94823521 C316.75796807 509.08883845 316.75951846 491.2294677 316.76873779 473.37007141 C316.77948246 452.54659391 316.78363145 431.72313183 316.77751327 410.89965194 C316.77687628 408.67187019 316.77624754 406.44408844 316.77562714 404.21630669 C316.77531859 403.12067448 316.77501003 402.02504227 316.77469213 400.89620908 C316.77297764 393.23856756 316.77585318 385.58093596 316.78058624 377.92329597 C316.78624205 368.56861628 316.78458129 359.21397007 316.77402475 349.85929412 C316.76883024 345.10205637 316.76660251 340.34487408 316.77332306 335.58763695 C316.8076309 309.10466648 316.56993485 282.57203397 312.69549561 256.3117218 C312.52517822 255.1274762 312.35486084 253.94323059 312.17938232 252.72309875 C308.1382535 225.79739567 301.33380698 195.83211479 278.77752686 178.24531555 C249.49167435 158.67915435 212.97094671 164.3742218 179.50799561 164.3742218 Z " fill="#F85606" transform="translate(1461.4920043945313,492.6257781982422)"/>
<path d="M0 0 C0.72767578 0.1542041 1.45535156 0.3084082 2.20507812 0.46728516 C20.52338803 4.51425979 37.96354646 12.45971822 52 25 C52.88816406 25.79019531 53.77632812 26.58039062 54.69140625 27.39453125 C70.40926493 42.24850762 79.81456099 62.25824396 85 83 C89.29 83.33 93.58 83.66 98 84 C97.98952637 82.3507251 97.97905273 80.7014502 97.96826172 79.00219727 C97.93194207 72.85768827 97.90905594 66.71318869 97.89013672 60.56860352 C97.88124054 57.91390161 97.86647944 55.25941773 97.84912109 52.60473633 C97.8247424 48.77943201 97.81348688 44.95427434 97.8046875 41.12890625 C97.79436493 39.95042618 97.78404236 38.77194611 97.77340698 37.55775452 C97.77202366 27.29718197 98.47091067 18.58054096 106 11 C111.69755343 6.74221709 116.76278698 5.87743429 123.72245789 5.85282898 C124.39739518 5.84915229 125.07233248 5.8454756 125.76772243 5.8416875 C128.02834288 5.83067843 130.28891733 5.82681155 132.54956055 5.82299805 C134.17099655 5.81673127 135.79243113 5.81008428 137.41386414 5.80308533 C142.73813888 5.78206706 148.06241383 5.77168466 153.38671875 5.76171875 C155.22157112 5.75767029 157.05642334 5.75355334 158.89127541 5.74936867 C167.51274167 5.73032149 176.13419939 5.71608976 184.75568265 5.7077567 C194.69833215 5.69798729 204.64075885 5.67167353 214.58332986 5.63125581 C222.27435991 5.60106684 229.96532619 5.58628516 237.65641433 5.58297569 C242.24709929 5.58062828 246.83754609 5.57170823 251.42816734 5.54651451 C255.74974892 5.52318018 260.07093645 5.51902199 264.39256477 5.52927589 C265.97394499 5.52977007 267.55534496 5.52348453 269.13666534 5.50971985 C286.54786736 5.36670888 286.54786736 5.36670888 293.75460339 11.4910841 C300.52872644 18.58300837 301.44769767 27.15729822 301.34286118 36.56838608 C301.34351713 37.60178503 301.34417309 38.63518399 301.34484893 39.69989806 C301.34342681 43.16207667 301.32051314 46.62377703 301.29779053 50.08587646 C301.29248722 52.59456365 301.28855014 55.10325404 301.28586125 57.61194539 C301.27709665 63.06770902 301.25913151 68.52332225 301.23311806 73.9790287 C301.19456723 82.09593865 301.17363821 90.21282653 301.15695301 98.32980761 C301.13038574 111.16732798 301.0942457 124.00479754 301.05212068 136.84227544 C300.98535374 157.3101887 300.95348475 177.77805265 300.93353436 198.24605993 C300.92923693 202.61493125 300.92462913 206.98380225 300.92005992 211.35267329 C300.91453907 216.658298 300.90904955 221.96392273 300.90365635 227.26954757 C300.88321479 247.28956753 300.85867599 267.30958055 300.82958984 287.32958984 C300.82827464 288.24422666 300.82695944 289.15886348 300.82560438 290.10121656 C300.78293165 319.56670421 300.69914274 349.03191799 300.59642227 378.49725128 C300.49073904 408.8949202 300.43675756 439.29231259 300.44128728 469.69017227 C300.44189037 474.02039984 300.44188128 478.3506272 300.44147491 482.6808548 C300.44137337 483.95868528 300.44137337 483.95868528 300.44126978 485.26233052 C300.438827 497.93564112 300.39208241 510.60827081 300.32054901 523.28136444 C300.21512966 542.35026238 300.174587 561.41821384 300.25292969 580.48730469 C300.25586744 581.23545097 300.25880519 581.98359726 300.26183196 582.75441464 C300.45835025 629.58556573 303.47723728 675.2409314 314.75353289 720.89798021 C317.28552301 731.55545354 319.88377038 744.11054103 314 754 C312.38671875 755.828125 312.38671875 755.828125 310.6875 757.25 C310.13449219 757.72953125 309.58148437 758.2090625 309.01171875 758.703125 C304.42641221 761.6590896 299.84701879 762.25086747 294.48587036 762.26069641 C293.19340393 762.26778122 291.9009375 762.27486603 290.56930542 762.28216553 C289.1492306 762.27987202 287.72915612 762.27736236 286.30908203 762.2746582 C284.80395251 762.27900849 283.29882521 762.2841927 281.79370117 762.29014587 C277.71511195 762.30351375 273.63661552 762.30411696 269.55800867 762.30158257 C266.14858377 762.30051126 262.73917752 762.30540038 259.32975662 762.310188 C251.28346282 762.32127575 243.23721571 762.32172485 235.19091797 762.31567383 C226.90095035 762.30963523 218.6111525 762.3219438 210.32121384 762.3432439 C203.19405193 762.36088039 196.06694396 762.36685799 188.93976104 762.36360615 C184.68733405 762.36179626 180.43502816 762.36439999 176.182621 762.37832069 C172.18196589 762.39092764 168.18157468 762.388928 164.18092346 762.37590981 C162.71685063 762.37355062 161.25275906 762.37625506 159.78870773 762.38453293 C149.95228955 762.43611684 141.2287754 762.19074343 133.77615356 755.0252533 C126.25147384 746.44526183 124.10624468 734.76736445 121.6953125 723.96484375 C121.3239866 722.35221677 120.9513941 720.73988097 120.5776062 719.12782288 C119.80391057 715.77743057 119.03996092 712.42503484 118.28417969 709.07055664 C117.31528119 704.77024284 116.33007645 700.47388442 115.33870125 696.17870235 C114.39008546 692.06688906 113.4482458 687.95353514 112.5078125 683.83984375 C112.32866428 683.05769941 112.14951607 682.27555508 111.96493912 681.4697094 C111.4613783 679.26439561 110.96251798 677.05807696 110.46533203 674.85131836 C110.18142609 673.59733749 109.89752014 672.34335663 109.60501099 671.05137634 C109 668 109 668 109 665 C104.05 665 99.1 665 94 665 C93.87882812 666.30839844 93.75765625 667.61679688 93.6328125 668.96484375 C93.1090194 673.63609271 92.14922265 678.0433782 90.875 682.5625 C90.65690674 683.33625977 90.43881348 684.11001953 90.21411133 684.90722656 C85.13906938 702.2015301 76.71639817 718.29777163 65 732 C64.5565625 732.5878125 64.113125 733.175625 63.65625 733.78125 C45.50206869 757.24885023 12.49861567 766.98032332 -15.59716797 770.59204102 C-23.31506771 771.3972441 -31.08039057 771.33360611 -38.83178711 771.31567383 C-41.6662484 771.31252362 -44.49965179 771.33603255 -47.33398438 771.36132812 C-63.40684293 771.41799699 -79.3052104 769.93634988 -94.75 765.25 C-96.04429932 764.86702759 -96.04429932 764.86702759 -97.36474609 764.47631836 C-132.50852511 753.72802238 -158.83253594 728.93081087 -176.01611328 696.87304688 C-213.98937271 624.58251428 -214.53682103 535.85271776 -214.37004495 456.26609778 C-214.35829284 450.10979421 -214.36236573 443.95348809 -214.36424746 437.79717682 C-214.36739766 425.60767876 -214.35599686 413.41824019 -214.33618164 401.22875977 C-214.31713994 389.5112935 -214.31011346 377.79389666 -214.31567383 366.07641602 C-214.32178136 353.16854677 -214.32146882 340.26070754 -214.310188 327.35284072 C-214.30898125 325.96781496 -214.30777526 324.5827892 -214.30657005 323.19776344 C-214.30596651 322.51709218 -214.30536298 321.83642092 -214.30474115 321.13512325 C-214.30092482 316.42768521 -214.3012926 311.72026241 -214.3031559 307.0128231 C-214.30970674 279.27691731 -214.22739244 251.66053672 -212 224 C-211.88066856 222.48192356 -211.88066856 222.48192356 -211.75892639 220.9331789 C-211.32457321 215.46793971 -210.82700823 210.01451121 -210.25 204.5625 C-210.16796326 203.77179108 -210.08592651 202.98108215 -210.00140381 202.16641235 C-208.16042155 184.63035327 -205.38652097 167.30023486 -202 150 C-201.77086914 148.82695313 -201.54173828 147.65390625 -201.30566406 146.4453125 C-191.6583763 98.39089799 -171.97832414 47.6479069 -130 19 C-92.93932201 -5.2580771 -42.48371385 -9.20862171 0 0 Z M16 145 C15.41605469 145.43441406 14.83210938 145.86882812 14.23046875 146.31640625 C-4.13154151 162.19146252 -5.46705058 194.12410729 -7.27010059 216.32586956 C-8.19404123 229.85201964 -8.15023282 243.373448 -8.14538372 256.92555916 C-8.14517713 260.53796709 -8.15072282 264.15036737 -8.15544128 267.76277161 C-8.16369424 274.81976639 -8.16649371 281.87675282 -8.16705366 288.93375204 C-8.16753153 294.6815814 -8.1695997 300.42940805 -8.17275429 306.17723656 C-8.18154749 322.53621938 -8.18617594 338.89519568 -8.18542381 355.25418089 C-8.18538386 356.13331145 -8.1853439 357.01244201 -8.18530273 357.91821289 C-8.18526185 358.7984391 -8.18522097 359.67866532 -8.18517885 360.58556505 C-8.18477312 374.82427069 -8.19432789 389.06294979 -8.2084411 403.30164776 C-8.22287657 417.98344414 -8.22970732 432.66522765 -8.22884732 447.3470313 C-8.22851774 455.56482929 -8.23115861 463.78259948 -8.24202538 472.00039101 C-8.25122555 479.00181402 -8.25322908 486.00319665 -8.24651595 493.00462315 C-8.24329746 496.56258151 -8.24301954 500.12046284 -8.2518692 503.67841339 C-9.83140698 560.41727277 -9.83140698 560.41727277 11.8046875 611.12109375 C22.2245811 621.17348073 35.73156531 622.41359004 49.4453125 622.2109375 C61.08317178 621.82092236 71.45424985 617.97871127 79.6875 609.5625 C97.36448733 587.59133886 98.16876034 552.30964656 98.13371277 525.51895142 C98.1371111 523.57877768 98.1371111 523.57877768 98.14057809 521.59940851 C98.14663489 518.04747717 98.1465698 514.49556958 98.14538372 510.94363427 C98.14517813 507.09743919 98.15071348 503.25125142 98.15544128 499.40505981 C98.16371555 491.88263078 98.16649469 484.36020959 98.16705366 476.83777638 C98.16753051 470.71461769 98.16959368 464.59146156 98.17275429 458.46830368 C98.18155335 441.06428452 98.18617503 423.6602715 98.18542381 406.2562501 C98.18536388 404.85154253 98.18536388 404.85154253 98.18530273 403.41845703 C98.18524141 402.01201077 98.18524141 402.01201077 98.18517885 400.57715146 C98.18477296 385.4036346 98.19433008 370.23014262 98.2084411 355.05663295 C98.22285403 339.43368713 98.22970854 323.8107534 98.22884732 308.18780077 C98.22851697 299.43410527 98.23119252 290.68043583 98.24202538 281.92674637 C98.25119553 274.46944154 98.25325291 267.01217458 98.24651595 259.55486651 C98.24328278 255.76060104 98.24307567 251.96640794 98.2518692 248.17214966 C98.29667025 227.55433503 98.13360305 206.81740316 94.1875 186.5 C94.01645752 185.60112061 93.84541504 184.70224121 93.66918945 183.77612305 C90.43513191 167.53329032 85.26805487 151.83683783 71 142 C62.54142221 137.66356072 54.68060065 136.80019746 45.3125 136.75 C43.89807617 136.7190625 43.89807617 136.7190625 42.45507812 136.6875 C32.49294755 136.6327254 23.98990816 138.9531303 16 145 Z " fill="#F85606" transform="translate(2267,739)"/>
<path d="M0 0 C12.5399946 12.64526407 27.3125 35.42960438 27.3125 53.8125 C31.9325 53.8125 36.5525 53.8125 41.3125 53.8125 C41.28631592 52.01699707 41.26013184 50.22149414 41.2331543 48.37158203 C41.15216276 42.40459026 41.09491224 36.43775565 41.05343914 30.4703846 C41.02746866 26.85624299 40.99230591 23.24270218 40.93530273 19.62890625 C40.880527 16.13400338 40.85098538 12.63967422 40.83811378 9.14437485 C40.82453101 7.17801721 40.7855716 5.21188682 40.74601746 3.24588013 C40.74359056 -4.59738898 41.67626201 -10.69731782 46.3125 -17.1875 C52.0694716 -22.67575224 58.37826843 -24.43476696 66.28219604 -24.44819641 C66.95954776 -24.45202196 67.63689947 -24.45584751 68.334777 -24.45978898 C70.59159174 -24.47006088 72.84814929 -24.46613799 75.10498047 -24.4621582 C76.7283349 -24.46650792 78.35168728 -24.47169194 79.97503662 -24.47764587 C84.37592776 -24.49101973 88.77673294 -24.4916163 93.17764044 -24.48908257 C96.85548025 -24.48801168 100.53330275 -24.4928993 104.21113884 -24.497688 C112.89028416 -24.50877779 121.56938619 -24.50922368 130.24853516 -24.50317383 C139.19287682 -24.49713484 148.13706114 -24.50944436 157.08137596 -24.5307439 C164.76904198 -24.54837567 172.456658 -24.55435873 180.1443435 -24.55110615 C184.73211517 -24.54929553 189.31977462 -24.55190732 193.90752792 -24.56582069 C198.22335448 -24.57841994 202.53893631 -24.57643517 206.85475922 -24.56340981 C208.4349361 -24.56104897 210.01513032 -24.56376102 211.59528732 -24.57203293 C220.74972716 -24.61648407 228.13083815 -24.48492117 236.0625 -19.4375 C240.3005651 -15.1994349 243.08440911 -10.15718279 243.43271182 -4.09533939 C243.42931547 -2.96243448 243.42931547 -2.96243448 243.42585051 -1.80664259 C243.42560651 -0.49059942 243.42560651 -0.49059942 243.42535758 0.85203049 C243.4200472 1.81352391 243.41473682 2.77501734 243.40926552 3.76564693 C243.40678792 5.30709154 243.40678792 5.30709154 243.40426028 6.87967643 C243.39749953 10.35218074 243.38355598 13.82462082 243.36978149 17.29710388 C243.36361115 19.80147714 243.35792172 22.30585162 243.35267389 24.81022698 C243.34033506 30.27199712 243.3250249 35.73374654 243.30720711 41.19550133 C243.2783322 50.08567565 243.25688742 58.97586043 243.23677063 67.86605835 C243.23324989 69.41073931 243.22972652 70.95542027 243.22620057 72.50010122 C243.2208255 74.85491173 243.21545585 77.20972225 243.21011656 79.56453285 C243.19906175 84.41931367 243.18743954 89.27409277 243.17539247 94.12887122 C243.11416061 118.81906588 243.07732656 143.50921751 243.05673218 168.19947815 C243.05524427 169.94597675 243.05375505 171.69247535 243.05226453 173.43897396 C243.03866482 189.51245323 243.02683702 205.5859337 243.01611447 221.65941513 C243.00871526 232.69457504 243.00039468 243.72973401 242.99121094 254.76489258 C242.99008679 256.13896945 242.99008679 256.13896945 242.98893994 257.54080545 C242.9644762 287.03972376 242.89402712 316.53831501 242.79985611 346.0370859 C242.70301529 376.45717678 242.65733869 406.87696207 242.67160326 437.29721222 C242.67360619 441.63102876 242.67503215 445.96484532 242.67609787 450.29866219 C242.67643583 451.57759142 242.67643583 451.57759142 242.67678061 452.88235761 C242.67876594 465.56885871 242.63731938 478.25472039 242.57191849 490.94103813 C242.47580109 510.03446329 242.44424041 529.12693573 242.53369141 548.22045898 C242.53709046 548.96946042 242.54048951 549.71846185 242.54399157 550.49016029 C242.77062239 597.43370278 245.90618009 643.13109584 256.95453048 688.94155848 C260.0065155 701.79657021 262.54636287 713.75389118 255.6875 725.625 C248.05268702 732.65706458 239.07927921 732.38978786 229.20507812 732.33007812 C227.69127227 732.33550676 226.17747171 732.34263356 224.66368103 732.35131836 C220.57476392 732.36946676 216.48625304 732.36251959 212.39732933 732.34980202 C208.10541108 732.33963011 203.81352615 732.34907928 199.52160645 732.35534668 C192.31593624 732.36261094 185.11043037 732.35306757 177.90478516 732.33398438 C169.5902815 732.31221793 161.27617028 732.31927017 152.96167612 732.34129 C145.80554056 732.35947893 138.64952271 732.36198529 131.49337149 732.35153532 C127.22696602 732.34531954 122.96074462 732.34441172 118.6943512 732.35768127 C114.68206601 732.36929022 110.67028367 732.36112289 106.65805244 732.33810425 C105.19118138 732.33284393 103.72426754 732.33428478 102.25741386 732.34315491 C92.62246697 732.39601803 85.17399896 731.79009006 77.5625 725.5625 C76.44875 724.20125 76.44875 724.20125 75.3125 722.8125 C74.70148437 722.08740234 74.70148437 722.08740234 74.078125 721.34765625 C70.9696717 717.11670593 69.47598782 712.502082 68.11328125 707.48828125 C67.79892876 706.34300461 67.79892876 706.34300461 67.47822571 705.17459106 C64.11627656 692.64192937 61.34765015 679.95205196 58.47930908 667.29925537 C57.670971 663.73785344 56.85771187 660.17757552 56.04492188 656.6171875 C54.46275237 649.68335525 52.88631209 642.74823475 51.3125 635.8125 C46.3625 635.4825 41.4125 635.1525 36.3125 634.8125 C36.2196875 636.730625 36.2196875 636.730625 36.125 638.6875 C33.20355112 666.71761768 17.92114416 695.10114645 -3.43896484 713.30517578 C-7.34006325 716.43288501 -11.42819408 719.19848976 -15.6875 721.8125 C-16.27611816 722.17424316 -16.86473633 722.53598633 -17.47119141 722.90869141 C-37.93971995 735.19647762 -62.72886542 740.84339302 -86.46875 741.05078125 C-87.39190002 741.06052979 -88.31505005 741.07027832 -89.26617432 741.08032227 C-127.32685894 741.39979082 -127.32685894 741.39979082 -145.6875 736.8125 C-146.81067627 736.55557373 -146.81067627 736.55557373 -147.95654297 736.29345703 C-164.66494231 732.42566879 -181.52130107 724.84042903 -194.6875 713.8125 C-195.81347994 712.9097543 -196.93980549 712.00743956 -198.06640625 711.10546875 C-248.76439654 669.8105273 -261.3739024 596.41712506 -267.6875 534.8125 C-268.34696439 528.02698429 -268.91277194 521.23464688 -269.4375 514.4375 C-269.49675659 513.6714444 -269.55601318 512.90538879 -269.61706543 512.11611938 C-271.22991681 490.80800421 -271.83856904 469.49914888 -271.83276367 448.13452148 C-271.83576701 445.8790176 -271.83917217 443.62351421 -271.84294128 441.36801147 C-271.8516695 435.31535143 -271.85411471 429.26270558 -271.85475707 423.21003985 C-271.85547437 419.4037841 -271.85762141 415.59753181 -271.86025429 411.79127693 C-271.86900018 399.12631153 -271.87367859 386.46135622 -271.87292381 373.79638862 C-271.87288386 373.11826055 -271.8728439 372.44013248 -271.87280273 371.74145508 C-271.87276185 371.06246275 -271.87272097 370.38347042 -271.87267885 369.68390257 C-271.87227387 358.72189884 -271.88181389 347.75992971 -271.8959411 336.79793596 C-271.91045668 325.4414889 -271.91702171 314.08506555 -271.91634732 302.72860771 C-271.91609586 296.39353857 -271.91874712 290.0585086 -271.92952538 283.7234478 C-271.98560905 248.31999317 -271.67305884 212.93213143 -267.9375 177.6875 C-267.81444489 176.48998611 -267.81444489 176.48998611 -267.68890381 175.26828003 C-261.25572193 113.17182186 -248.42304864 39.81797027 -198.4140625 -3.046875 C-145.08368839 -44.916567 -50.31007583 -48.80121091 0 0 Z M-46.375 119.4375 C-75.71633554 155.55512551 -65.99719765 224.01610088 -65.95810015 267.2014997 C-65.95347934 272.44530092 -65.95298207 277.68908917 -65.95513153 282.93289185 C-65.955438 283.68917061 -65.95574446 284.44544937 -65.95606022 285.22464567 C-65.95669989 286.76267012 -65.95734832 288.30069457 -65.9580054 289.83871901 C-65.96366135 304.14390772 -65.95722617 318.44907049 -65.94640467 332.75425494 C-65.93747353 344.9361178 -65.93902692 357.11794251 -65.94824219 369.29980469 C-65.95902967 383.56597104 -65.96311248 397.83211486 -65.95701766 412.09828472 C-65.95638079 413.6295592 -65.95575205 415.16083367 -65.95513153 416.69210815 C-65.95482298 417.44484562 -65.95451443 418.19758308 -65.95419653 418.97313076 C-65.95249477 424.18945984 -65.95536809 429.40577403 -65.96009064 434.62210083 C-71.09598699 512.08098211 -71.09598699 512.08098211 -44.875 581.3125 C-33.69025796 591.54718673 -20.27080348 592.5756493 -5.83349609 591.96044922 C5.25107773 591.19625676 14.68172756 586.80079129 22.5 578.9375 C34.34725363 564.60112642 36.84207396 544.9371684 39 527.125 C39.11956055 526.14805176 39.23912109 525.17110352 39.36230469 524.16455078 C41.61136514 503.7958859 41.46230358 483.22526223 41.45776367 462.76245117 C41.46022767 460.02608102 41.46414149 457.2897133 41.46794128 454.55334473 C41.47616047 447.94835415 41.47899213 441.34337251 41.47955366 434.73837724 C41.4800331 429.35449197 41.48210884 423.97060959 41.48525429 418.58672523 C41.49403763 403.23432318 41.49867741 387.88192804 41.49792381 372.52952345 C41.49786388 371.29444914 41.49786388 371.29444914 41.49780273 370.03442383 C41.49774141 368.79779549 41.49774141 368.79779549 41.49767885 367.53618477 C41.49727322 354.20399363 41.50682807 340.87183085 41.5209411 327.5396479 C41.53540552 313.76390242 41.54220578 299.98817067 41.54134732 286.21241742 C41.54101876 278.51318833 41.54367141 270.81398924 41.55452538 263.11476707 C46.61983423 185.99596906 46.61983423 185.99596906 20.5625 117.4375 C11.13260819 108.65546336 -0.09493598 106.45712667 -12.5625 106.5 C-13.49191406 106.48388672 -14.42132812 106.46777344 -15.37890625 106.45117188 C-27.77228322 106.44252935 -37.79862145 110.39092525 -46.375 119.4375 Z " fill="#F85606" transform="translate(3323.6875,769.1875)"/>
<path d="M0 0 C1.66864341 -0.0050505 3.33728139 -0.0122832 5.005907 -0.02149814 C9.5723576 -0.04037568 14.1382705 -0.02821217 18.70470726 -0.01077521 C23.63661177 0.00261972 28.5684387 -0.01284588 33.50033569 -0.02459717 C43.15417915 -0.04296182 52.80782 -0.03446942 62.46165711 -0.01650894 C70.30794298 -0.00247561 78.1541739 0.00140827 86.00047112 -0.00195122 C87.11776365 -0.00242866 88.23505619 -0.0029061 89.38620607 -0.00339801 C91.65604716 -0.00442435 93.92588824 -0.00547971 96.19572931 -0.00656378 C116.25987547 -0.01512836 136.32392389 0.0015368 156.38804626 0.03126526 C175.85325729 0.0601059 195.31832754 0.06718404 214.78355408 0.05177307 C235.98612695 0.03500958 257.18863302 0.03097794 278.39120764 0.04848343 C280.65232972 0.0503278 282.9134518 0.05216253 285.1745739 0.0539875 C286.28705816 0.05489959 287.39954242 0.05581168 288.54573833 0.05675141 C296.38235165 0.06235558 304.21893234 0.05905077 312.0555439 0.05244255 C321.60602804 0.04470873 331.15637363 0.05146392 340.70682985 0.07661759 C345.57884955 0.08911096 350.45065357 0.09526101 355.32268143 0.08407593 C359.78428372 0.07402652 364.24545612 0.08250814 368.70700615 0.10565711 C370.3192317 0.11081127 371.93149585 0.1092638 373.54370452 0.10026246 C391.11868901 0.01031511 391.11868901 0.01031511 398.08930641 5.96919626 C402.14182383 10.32572354 403.39507047 15.09295238 403.68296814 20.90675354 C403.51095855 24.84952366 402.76972314 27.96401376 401.61045837 31.73365784 C401.39155441 32.45087509 401.17265045 33.16809235 400.94711304 33.90704346 C400.15274182 36.48550707 399.33873745 39.05716307 398.52061462 41.62818909 C398.19828857 42.64334595 397.87596252 43.65850281 397.54386902 44.704422 C394.97742188 52.76296158 392.37217386 60.80880241 389.76062393 68.85280228 C388.60069738 72.42735884 387.4434763 76.00279115 386.28599548 79.57814026 C384.34067921 85.58610348 382.39398281 91.59361783 380.44639587 97.60084534 C377.63418744 106.27545817 374.82664623 114.9515765 372.02061462 123.62818909 C371.56768393 125.02865125 371.11475221 126.42911308 370.66181946 127.82957458 C369.98277744 129.92917582 369.30373901 132.02877822 368.62471581 134.12838554 C366.10388761 141.92286638 363.58181765 149.71694532 361.05967712 157.51100159 C360.59830173 158.93679286 360.13692682 160.36258428 359.67555237 161.78837585 C358.05969476 166.78185753 356.443803 171.77532816 354.82791138 176.76879883 C351.37113366 187.45103773 347.91449162 198.13332052 344.45811462 208.81568909 C344.23045033 209.51930698 344.00278603 210.22292488 343.76822281 210.94786453 C336.84674664 232.33949619 329.93139328 253.73309925 323.02061462 275.12818909 C313.57997407 304.35548212 304.12747979 333.57893096 294.67127991 362.80119324 C291.45275666 372.7473238 288.23459483 382.69357124 285.01670837 392.63990784 C284.78990828 393.34093313 284.56310818 394.04195843 284.32943535 394.76422691 C282.04011771 401.84037413 279.75084042 408.9165344 277.46160793 415.99270916 C276.31722684 419.53006068 275.17283055 423.06740729 274.02842712 426.60475159 C273.80178942 427.30528971 273.57515171 428.00582783 273.34164619 428.72759438 C270.11088631 438.71380047 266.8793376 448.69975104 263.6473217 458.68555069 C261.5632447 465.12470697 259.47936569 471.56392732 257.39561462 478.00318909 C257.16864773 478.70456749 256.94168083 479.40594589 256.70783615 480.12857819 C248.95095277 504.09969337 241.20910592 528.07563599 233.47911072 552.05543518 C229.23602476 565.21726513 224.98605111 578.37683307 220.7283783 591.53395081 C220.21973374 593.10592472 219.71109469 594.67790042 219.20246124 596.24987793 C217.97524228 600.04266878 216.74794974 603.83543582 215.52061462 607.62818909 C216.95379233 607.62265833 216.95379233 607.62265833 218.41592312 607.61701584 C241.67711884 607.52817 264.93829252 607.46246346 288.19962215 607.4209404 C299.4486895 607.4003258 310.69764467 607.37222617 321.94664001 607.32643127 C331.75264597 607.28652989 341.55857067 607.26074826 351.36465555 607.25183511 C356.55567488 607.24662599 361.74646179 607.23440541 366.93740654 607.20526886 C371.82688248 607.17804771 376.71603104 607.16975766 381.60557556 607.17575836 C383.3965896 607.17466112 385.18761498 607.16674726 386.97856331 607.15136719 C405.96266908 606.99638321 405.96266908 606.99638321 413.26743984 613.08393478 C420.26226586 620.25524315 420.96991067 629.87812085 420.90879822 639.42701721 C420.91668365 640.97056129 420.91668365 640.97056129 420.92472839 642.54528809 C420.93783653 645.91683024 420.92922277 649.28789287 420.91905212 652.65943909 C420.92107549 655.02015777 420.92398912 657.38087585 420.92774963 659.74159241 C420.93216056 664.67732218 420.9257815 669.61288854 420.91172791 674.54859924 C420.89463701 680.85646322 420.90448477 687.16394418 420.9224453 693.47179413 C420.93331633 698.34300084 420.92982154 703.21411764 420.92206192 708.08532715 C420.9200691 710.41041103 420.92248673 712.73550323 420.92950058 715.06057739 C420.93716968 718.31705675 420.92543422 721.57292667 420.90879822 724.82936096 C420.91487091 725.77822678 420.9209436 726.72709259 420.92720032 727.70471191 C420.84758592 736.17118207 419.58169476 744.83565388 413.34674805 751.04592609 C405.30949246 758.00984882 395.36754579 757.1933187 385.37097168 757.13612366 C383.61728569 757.14073587 381.86360357 757.14709095 380.1099295 757.15503263 C375.30379517 757.17170515 370.49797923 757.16348898 365.69184387 757.15108776 C360.50360149 757.14203105 355.31541355 757.15601014 350.12718201 757.16700745 C339.96823329 757.18479095 329.80940281 757.18095329 319.65044946 757.16935688 C311.39320703 757.1603217 303.13599772 757.15909894 294.87875175 757.16345215 C293.11561892 757.16437155 293.11561892 757.16437155 291.31686724 757.16530952 C288.92897335 757.16658843 286.54107947 757.16788528 284.1531856 757.16919988 C261.76316776 757.18060532 239.37321544 757.16749278 216.98320835 757.14599842 C197.77551083 757.12812982 178.56791001 757.13122968 159.36021423 757.14967346 C137.05161746 757.1710848 114.74307812 757.17950423 92.4344725 757.16722441 C90.05507943 757.16595022 87.67568635 757.16469274 85.29629326 757.16345215 C84.12560841 757.16283505 82.95492355 757.16221794 81.7487634 757.16158214 C73.50285992 757.15812987 65.25699289 757.16395501 57.01109505 757.17337036 C46.95996641 757.18459473 36.9089627 757.18154109 26.85784835 757.16024739 C21.73052736 757.14974261 16.6034146 757.14560548 11.4760952 757.15884399 C6.78002884 757.17078553 2.08436322 757.16417618 -2.61166693 757.14293379 C-4.30806126 757.13847518 -6.00448963 757.1407173 -7.70086198 757.15043694 C-27.1339932 757.25321822 -27.1339932 757.25321822 -34.1111173 751.21635485 C-38.9806597 745.78664831 -39.86008405 740.52535002 -39.71775818 733.50328064 C-39.34870679 729.05203235 -38.14930475 725.07948664 -36.71766663 720.86647034 C-36.41994858 719.94722275 -36.12223053 719.02797516 -35.81549072 718.08087158 C-34.82283205 715.02893395 -33.80739393 711.98509223 -32.79188538 708.94068909 C-32.07428628 706.74910711 -31.35817976 704.55703594 -30.64344788 702.36451721 C-28.68894582 696.38236256 -26.71466083 690.40690521 -24.73677063 684.43244934 C-22.57983071 677.91198195 -20.44307093 671.38487388 -18.30360413 664.85865784 C-17.42155473 662.16867967 -16.53937205 659.47874524 -15.65711975 656.78883362 C-15.32753926 655.78388981 -15.32753926 655.78388981 -14.99130058 654.7586441 C-13.41384876 649.94978616 -11.83290012 645.14208539 -10.25086975 640.33473206 C-5.0204899 624.43595017 0.13899913 608.51675645 5.20811462 592.56568909 C12.43545733 569.82609418 19.90689021 547.1689038 27.38442993 524.51068115 C34.16193511 503.97261608 40.91705238 483.4305968 47.45811462 462.81568909 C54.76592496 439.78489295 62.3458941 416.84559944 69.920784 393.90161896 C77.20358109 371.84107315 84.44900088 349.77305195 91.47520447 327.62916565 C98.27734002 306.20889056 105.33388708 284.87329388 112.37760925 263.53158951 C120.1513545 239.97702887 127.87319072 216.40992275 135.3624115 192.76295471 C138.57430175 182.63233268 141.86787248 172.53288865 145.23716736 162.4533844 C145.85760548 160.59479294 145.85760548 160.59479294 146.4905777 158.69865417 C147.50003373 155.67497954 148.51005688 152.65149565 149.52061462 149.62818909 C148.67946672 149.63187626 147.83831882 149.63556343 146.97168159 149.63936234 C126.4807439 149.72779724 105.98983922 149.7939395 85.49875069 149.83543777 C75.58930217 149.85604075 65.67998124 149.884118 55.77061462 149.9299469 C47.13105458 149.96988406 38.49158697 149.99563836 29.85193717 150.00454307 C25.27958917 150.00974618 20.70750553 150.02192799 16.13524246 150.05110931 C11.82604033 150.07838725 7.51720989 150.08660923 3.20792961 150.08061981 C1.63180327 150.08171454 0.05566368 150.08959453 -1.52038765 150.10501099 C-20.33191482 150.27989557 -20.33191482 150.27989557 -27.40528679 143.88777542 C-34.71060588 136.01167586 -34.62965002 126.71426468 -34.62464905 116.53712463 C-34.62800766 115.54754761 -34.63136627 114.55797058 -34.63482666 113.53840637 C-34.64429306 110.28056061 -34.64627761 107.02276648 -34.64735413 103.76490784 C-34.6505697 101.48958312 -34.653934 99.21425861 -34.65744019 96.93893433 C-34.66342068 92.17364523 -34.66528119 87.40837425 -34.66468811 82.64308167 C-34.66458655 76.55381126 -34.67823726 70.46465761 -34.69546032 64.37541485 C-34.70660937 59.67665072 -34.70860642 54.97791456 -34.70807838 50.27913857 C-34.70925417 48.03499258 -34.71365332 45.79084576 -34.72141075 43.54671288 C-34.73126929 40.40020574 -34.72830948 37.25394878 -34.7223053 34.10743713 C-34.7279248 33.19126114 -34.73354431 32.27508514 -34.73933411 31.33114624 C-34.6981751 22.79131959 -34.23577281 14.19654725 -28.40384507 7.50899529 C-20.38333541 -0.32958111 -10.52150771 -0.08402408 0 0 Z " fill="#F85606" transform="translate(3658.4793853759766,744.3718109130859)"/>
<path d="M0 0 C4.18123721 3.31493437 6.34302058 6.75973903 8.03515625 11.83984375 C8.42105961 15.24452496 8.42105961 15.24452496 8.43629456 18.86491394 C8.44309123 19.53621426 8.44988789 20.20751459 8.45689052 20.89915735 C8.47575374 23.12979152 8.47343288 25.3598715 8.47094727 27.59057617 C8.47993182 29.19774067 8.49014167 30.80489872 8.5014801 32.41204834 C8.52791797 36.76564132 8.53501106 41.11905726 8.53692746 45.47272277 C8.53906415 48.19741818 8.54547698 50.922069 8.55341911 53.64675331 C8.58115529 63.16597968 8.59342721 72.68508026 8.59106445 82.2043457 C8.58926409 91.05507068 8.62088594 99.90524594 8.66829544 108.7558319 C8.70762902 116.3722595 8.72361161 123.98850826 8.72169822 131.60503656 C8.7209362 136.14612536 8.72932543 140.68672567 8.76123238 145.22771263 C8.7904571 149.50356882 8.79039211 153.77847576 8.76868248 158.05436707 C8.76556687 159.6151399 8.77250257 161.17597372 8.79076385 162.73664284 C8.92291096 174.82249817 6.64581285 184.15818691 -1.77734375 193.19921875 C-5.86808735 196.96006367 -10.31789702 200.06109048 -14.96484375 203.08984375 C-21.1339744 207.2076033 -27.18911274 211.40764052 -33.08984375 215.90234375 C-39.12741408 220.49182999 -45.25900129 224.91719815 -51.46923828 229.26977539 C-56.66733343 232.91530807 -61.82475212 236.61302802 -66.96484375 240.33984375 C-72.7703747 244.54688603 -78.60006375 248.71579845 -84.46484375 252.83984375 C-93.35560947 259.09417251 -102.16317376 265.46099905 -110.96484375 271.83984375 C-120.4501625 278.71415002 -129.95408765 285.55636646 -139.53540039 292.29638672 C-145.03706678 296.17196068 -150.50753785 300.0895741 -155.96484375 304.02734375 C-156.74923828 304.59259766 -157.53363281 305.15785156 -158.34179688 305.74023438 C-159.06302734 306.26166016 -159.78425781 306.78308594 -160.52734375 307.3203125 C-161.16800781 307.78332764 -161.80867188 308.24634277 -162.46875 308.72338867 C-163.93374633 309.76081193 -163.93374633 309.76081193 -164.96484375 310.83984375 C-165.06622826 313.08215702 -165.09517362 315.32773853 -165.09792233 317.57234097 C-165.10016535 318.28805766 -165.10240838 319.00377436 -165.10471937 319.74117944 C-165.11109993 322.16995165 -165.11029301 324.59867077 -165.10960388 327.02745056 C-165.11273482 328.77422767 -165.11630897 330.52100403 -165.12029129 332.26777941 C-165.13002874 337.09188393 -165.13354619 341.91597661 -165.13613427 346.74008954 C-165.14001655 351.93390991 -165.14965462 357.1277197 -165.15869141 362.3215332 C-165.17365601 371.33041609 -165.18518908 380.33929813 -165.19463921 389.3481884 C-165.20849214 402.38458219 -165.22967766 415.42095646 -165.25306774 428.45733625 C-165.29102212 449.62007177 -165.32597664 470.78281083 -165.35766602 491.94555664 C-165.36051675 493.84729065 -165.36051675 493.84729065 -165.36342508 495.78744353 C-165.39023918 513.76735057 -165.4141154 531.74726033 -165.43681008 549.72717298 C-165.43840738 550.99226693 -165.44000469 552.25736088 -165.44165039 553.56079102 C-165.44324386 554.82434738 -165.44483732 556.08790375 -165.44647907 557.3897497 C-165.47324924 578.46005516 -165.50765212 599.53033997 -165.54830414 620.60062319 C-165.57308139 633.60228123 -165.59140689 646.60391703 -165.60145975 659.60559494 C-165.60885277 668.51924797 -165.62338219 677.43287117 -165.64352398 686.34650444 C-165.65491186 691.48991347 -165.66304972 696.63327439 -165.66251564 701.77669716 C-165.66208728 706.48778577 -165.67082361 711.19876623 -165.68676544 715.90982706 C-165.69091287 717.61184316 -165.69172029 719.31387146 -165.68880134 721.01589011 C-165.65377741 744.30162562 -165.65377741 744.30162562 -171.96484375 751.83984375 C-177.88445239 757.5020781 -182.86429958 759.08490766 -190.96577454 759.10726929 C-191.64650424 759.1118004 -192.32723394 759.11633151 -193.02859181 759.12099993 C-195.29688197 759.13360362 -197.56493078 759.13202621 -199.83325195 759.13037109 C-201.4648367 759.13635889 -203.09641861 759.14316501 -204.72799683 759.15072632 C-209.15167367 759.16836837 -213.57527309 759.17308095 -217.99898171 759.17435789 C-220.76534784 759.17578111 -223.53169439 759.18005395 -226.29805565 759.18535233 C-235.95644756 759.20384693 -245.61478433 759.21202368 -255.27319336 759.21044922 C-264.26413309 759.2092481 -273.25483265 759.23034616 -282.24571162 759.26193655 C-289.97500779 759.28812261 -297.70422563 759.29881553 -305.4335658 759.2975384 C-310.04544504 759.29702944 -314.65711079 759.30267624 -319.26894569 759.3238945 C-323.60862883 759.34331614 -327.94789568 759.3433747 -332.28759384 759.32886124 C-333.87541884 759.32677687 -335.46327016 759.3314518 -337.05105019 759.34358215 C-354.85262419 759.47071621 -354.85262419 759.47071621 -361.79977894 753.17767906 C-368.93168177 745.8245553 -369.40294925 737.39956636 -369.34236717 727.66453552 C-369.34672749 726.44544923 -369.35108782 725.22636295 -369.35558027 723.97033465 C-369.36463796 720.58836933 -369.36028076 717.20690485 -369.35024641 713.82497437 C-369.34263172 710.14501974 -369.35241787 706.46510436 -369.35997641 702.7851553 C-369.37081209 696.3361863 -369.37048241 689.88729263 -369.36283493 683.43832016 C-369.35149379 673.84852925 -369.35728541 664.25880197 -369.36645985 654.6690115 C-369.38226461 637.5423011 -369.3808849 620.41562426 -369.37222311 603.28891066 C-369.3646802 588.30115453 -369.36270459 573.31341071 -369.36629105 558.32565308 C-369.3665202 557.331967 -369.36674936 556.33828093 -369.36698546 555.31448316 C-369.36791945 551.28091543 -369.36887465 547.2473477 -369.36986475 543.21377998 C-369.37904435 505.36607789 -369.37071723 467.51839718 -369.35457406 429.67069839 C-369.34033695 396.03598799 -369.34161083 362.40131166 -369.35595703 328.76660156 C-369.37201653 290.98867933 -369.37839337 253.21077601 -369.36912024 215.43285084 C-369.36815807 211.4065787 -369.36721955 207.38030657 -369.36629105 203.35403442 C-369.36605381 202.36264377 -369.36581658 201.37125311 -369.36557216 200.34982031 C-369.36215793 185.3704866 -369.36615395 170.39116654 -369.37372971 155.41183472 C-369.38229957 138.38182161 -369.38017988 121.35184735 -369.36388747 104.32183909 C-369.35506734 94.78755046 -369.35451981 85.2533459 -369.365826 75.71905942 C-369.37254254 69.35383634 -369.36838571 62.98868079 -369.35531169 56.62346773 C-369.34816209 52.9946021 -369.34576264 49.36590375 -369.35652964 45.73704326 C-369.368005 41.82965664 -369.35634276 37.92253494 -369.34236717 34.01515198 C-369.34939067 32.88653484 -369.35641417 31.7579177 -369.3636505 30.59510005 C-369.30590576 22.55970119 -368.24982485 15.80574843 -362.77734375 9.52734375 C-362.24753906 8.89183594 -361.71773437 8.25632812 -361.171875 7.6015625 C-353.72032435 1.65351056 -344.78722043 2.41145786 -335.77148438 2.45166016 C-334.23650236 2.44759001 -332.70152327 2.44224565 -331.16654968 2.43572998 C-327.01571853 2.42210316 -322.86511214 2.42733577 -318.71427727 2.43686724 C-314.36049693 2.44448793 -310.00673523 2.43741155 -305.6529541 2.43270874 C-298.34298261 2.42725819 -291.03310218 2.43442438 -283.72314453 2.44873047 C-275.28430142 2.46505565 -266.84567579 2.45976664 -258.40683794 2.44325125 C-251.14799408 2.42961638 -243.88921552 2.42772649 -236.63036299 2.43556726 C-232.30084642 2.44023279 -227.97143192 2.44089955 -223.641922 2.43095779 C-219.57063989 2.42226122 -215.49963689 2.42835887 -211.42838478 2.44564056 C-209.93851496 2.44959109 -208.44862146 2.44849604 -206.95876122 2.44185257 C-198.05032246 2.40580561 -190.93211993 2.67884982 -183.21484375 7.58984375 C-177.64171442 13.16297308 -175.85502614 19.0500661 -175.84042358 26.79519653 C-175.84401886 27.58497894 -175.84761414 28.37476135 -175.85131836 29.18847656 C-175.85117233 30.02786774 -175.85102631 30.86725891 -175.85087585 31.73208618 C-175.85157168 34.50240679 -175.85934868 37.2726599 -175.8671875 40.04296875 C-175.86905285 41.96539269 -175.8704762 43.88781711 -175.87147522 45.8102417 C-175.87529118 50.8671195 -175.88511363 55.92396852 -175.8961792 60.98083496 C-175.9064131 66.14216726 -175.91097708 71.30350422 -175.91601562 76.46484375 C-175.9267367 86.58985638 -175.9438021 96.71484767 -175.96484375 106.83984375 C-174.3864711 106.73802088 -172.80914552 106.61989979 -171.23242188 106.49511719 C-170.35396606 106.43112732 -169.47551025 106.36713745 -168.57043457 106.3012085 C-164.05681442 105.50199428 -160.98244617 102.89033924 -157.46484375 100.08984375 C-155.89362064 98.89792127 -154.3219945 97.70652992 -152.75 96.515625 C-151.9573877 95.90412598 -151.16477539 95.29262695 -150.34814453 94.66259766 C-146.58982818 91.78822869 -142.74620431 89.03562315 -138.90234375 86.27734375 C-138.15791016 85.73948242 -137.41347656 85.20162109 -136.64648438 84.64746094 C-130.91417067 80.50634986 -125.14065913 76.42577178 -119.35693359 72.35693359 C-111.17298303 66.59169851 -103.07055275 60.71430382 -94.96484375 54.83984375 C-85.46801962 47.95719916 -75.95327865 41.10562435 -66.35913086 34.35913086 C-61.19893524 30.72523227 -56.07578027 27.04263142 -50.96484375 23.33984375 C-10.29769732 -6.08035011 -10.29769732 -6.08035011 0 0 Z " fill="#F85606" transform="translate(3009.96484375,742.16015625)"/>
</svg>
