<?xml version="1.0" encoding="UTF-8"?>
<svg xmlns="http://www.w3.org/2000/svg" xmlns:xlink="http://www.w3.org/1999/xlink" width="75pt" height="58pt" viewBox="0 0 75 58" version="1.1">
<g id="surface1">
<path style=" stroke:none;fill-rule:evenodd;fill:rgb(92.89856%,10.998535%,14.099121%);fill-opacity:1;" d="M 18.488281 17.308594 C 16.445313 17.222656 15.046875 17.914063 13.929688 18.871094 C 13.039063 19.632813 12.121094 21.277344 11.578125 22.65625 C 10.773438 24.699219 9.386719 26.722656 7.6875 27.96875 C 7.296875 28.261719 6.238281 28.90625 5.695313 29.054688 C 6.023438 29.34375 7.414063 29.601563 9.195313 31.699219 C 10.128906 32.792969 10.890625 33.96875 11.585938 35.488281 C 12.011719 36.417969 11.953125 36.535156 12.558594 37.585938 C 13.84375 39.804688 15.566406 41 18.496094 40.929688 C 18.605469 43.253906 20.078125 45.371094 22.335938 46.21875 C 22.914063 46.4375 23.449219 46.601563 24.074219 46.757813 C 24.773438 46.933594 25.234375 46.953125 25.902344 47.214844 C 26.921875 47.613281 28.019531 48.5 28.375 49.339844 L 28.429688 49.28125 C 28.433594 49.277344 28.449219 49.261719 28.453125 49.253906 L 28.542969 49.105469 C 28.675781 48.867188 28.878906 48.660156 29.089844 48.488281 C 29.34375 48.273438 29.738281 48.074219 30.105469 47.921875 C 32.222656 47.058594 33.976563 47.480469 35.519531 47.105469 C 36.179688 46.945313 36.875 46.648438 37.273438 46.117188 C 37.3125 46.0625 37.3125 46.054688 37.347656 46.007813 L 37.457031 45.882813 C 37.597656 46.035156 37.65625 46.140625 37.800781 46.285156 C 39.546875 48.027344 43.257813 46.632813 45.765625 48.503906 C 45.890625 48.597656 46.058594 48.757813 46.179688 48.882813 C 46.304688 49.015625 46.425781 49.230469 46.523438 49.3125 C 46.839844 48.765625 46.765625 48.582031 47.5 48.023438 C 48.527344 47.238281 49.570313 47.042969 50.777344 46.742188 C 52.449219 46.320313 54.191406 45.550781 55.15625 44.289063 C 55.773438 43.484375 56.351563 42.246094 56.382813 40.945313 C 57.472656 40.867188 57.824219 41.03125 59.0625 40.570313 C 63.527344 38.902344 62.660156 33.5 67.242188 30.199219 C 67.664063 29.894531 68.71875 29.257813 69.269531 29.101563 C 69.261719 29.09375 69.246094 29.070313 69.242188 29.082031 L 69.011719 28.976563 C 68.359375 28.753906 67.808594 28.421875 67.273438 28.019531 C 65.472656 26.675781 64.355469 24.871094 63.339844 22.699219 C 62.886719 21.726563 62.9375 21.667969 62.3125 20.65625 C 60.785156 18.199219 59.777344 17.40625 56.386719 17.296875 C 56.34375 16.054688 55.769531 14.671875 55.191406 13.925781 C 54.566406 13.121094 53.71875 12.503906 52.539063 12.019531 C 51.394531 11.546875 50.160156 11.414063 49.03125 10.96875 C 48.242188 10.660156 47.542969 10.222656 46.988281 9.621094 C 46.769531 9.386719 46.707031 9.171875 46.523438 8.910156 L 46.445313 9.023438 C 46.011719 9.6875 45.632813 9.953125 44.769531 10.28125 C 42.574219 11.109375 40.707031 10.738281 39.332031 11.121094 C 38.917969 11.234375 38.535156 11.398438 38.230469 11.601563 C 37.636719 11.996094 37.671875 12.152344 37.417969 12.359375 C 36.019531 10.246094 33.25 11.453125 30.144531 10.28125 C 29.746094 10.128906 29.425781 9.957031 29.113281 9.730469 C 28.496094 9.277344 28.667969 9.226563 28.390625 8.875 C 28.09375 9.25 28.109375 9.5625 27.386719 10.148438 C 25.285156 11.855469 21.832031 11.1875 19.726563 13.925781 C 19.097656 14.75 18.519531 15.933594 18.488281 17.308594 "/>
<path style=" stroke:none;fill-rule:evenodd;fill:rgb(100%,94.898987%,0%);fill-opacity:1;" d="M 18.488281 17.308594 C 18.519531 15.933594 19.097656 14.75 19.726563 13.925781 C 21.832031 11.1875 25.285156 11.855469 27.386719 10.148438 C 28.109375 9.5625 28.09375 9.25 28.390625 8.875 C 28.667969 9.226563 28.496094 9.277344 29.113281 9.730469 C 29.425781 9.957031 29.746094 10.128906 30.144531 10.28125 C 33.25 11.453125 36.019531 10.246094 37.417969 12.359375 C 37.671875 12.152344 37.636719 11.996094 38.230469 11.601563 C 38.535156 11.398438 38.917969 11.234375 39.332031 11.121094 C 40.707031 10.738281 42.574219 11.109375 44.769531 10.28125 C 45.632813 9.953125 46.011719 9.6875 46.445313 9.023438 L 46.523438 8.910156 C 46.707031 9.171875 46.769531 9.386719 46.988281 9.621094 C 47.542969 10.222656 48.242188 10.660156 49.03125 10.96875 C 50.160156 11.414063 51.394531 11.546875 52.539063 12.019531 C 53.71875 12.503906 54.566406 13.121094 55.191406 13.925781 C 55.769531 14.671875 56.34375 16.054688 56.386719 17.296875 C 59.777344 17.40625 60.785156 18.199219 62.3125 20.65625 C 62.9375 21.667969 62.886719 21.726563 63.339844 22.699219 C 64.355469 24.871094 65.472656 26.675781 67.273438 28.019531 C 67.808594 28.421875 68.359375 28.753906 69.011719 28.976563 L 69.242188 29.082031 C 69.246094 29.070313 69.261719 29.09375 69.269531 29.101563 C 68.71875 29.257813 67.664063 29.894531 67.242188 30.199219 C 62.660156 33.5 63.527344 38.902344 59.0625 40.570313 C 57.824219 41.03125 57.472656 40.867188 56.382813 40.945313 C 56.351563 42.246094 55.773438 43.484375 55.15625 44.289063 C 54.191406 45.550781 52.449219 46.320313 50.777344 46.742188 C 49.570313 47.042969 48.527344 47.238281 47.5 48.023438 C 46.765625 48.582031 46.839844 48.765625 46.523438 49.3125 C 46.425781 49.230469 46.304688 49.015625 46.179688 48.882813 C 46.058594 48.757813 45.890625 48.597656 45.765625 48.503906 C 43.257813 46.632813 39.546875 48.027344 37.800781 46.285156 C 37.65625 46.140625 37.597656 46.035156 37.457031 45.882813 L 37.347656 46.007813 C 37.3125 46.054688 37.3125 46.0625 37.273438 46.117188 C 36.875 46.648438 36.179688 46.945313 35.519531 47.105469 C 33.976563 47.480469 32.222656 47.058594 30.105469 47.921875 C 29.738281 48.074219 29.34375 48.273438 29.089844 48.488281 C 28.878906 48.660156 28.675781 48.867188 28.542969 49.105469 L 28.453125 49.253906 C 28.449219 49.261719 28.433594 49.277344 28.429688 49.28125 L 28.375 49.339844 C 28.019531 48.5 26.921875 47.613281 25.902344 47.214844 C 25.234375 46.953125 24.773438 46.933594 24.074219 46.757813 C 23.449219 46.601563 22.914063 46.4375 22.335938 46.21875 C 20.078125 45.371094 18.605469 43.253906 18.496094 40.929688 C 15.566406 41 13.84375 39.804688 12.558594 37.585938 C 11.953125 36.535156 12.011719 36.417969 11.585938 35.488281 C 10.890625 33.96875 10.128906 32.792969 9.195313 31.699219 C 7.414063 29.601563 6.023438 29.34375 5.695313 29.054688 C 6.238281 28.90625 7.296875 28.261719 7.6875 27.96875 C 9.386719 26.722656 10.773438 24.699219 11.578125 22.65625 C 12.121094 21.277344 13.039063 19.632813 13.929688 18.871094 C 15.046875 17.914063 16.445313 17.222656 18.488281 17.308594 Z M 3.339844 29.070313 C 4.148438 29.527344 4.691406 29.683594 5.449219 30.375 C 6.007813 30.890625 6.523438 31.542969 6.980469 32.285156 C 8.632813 34.980469 8.457031 36.550781 10.164063 39.421875 C 11.046875 40.910156 12.507813 41.878906 14.246094 42.222656 C 14.78125 42.328125 15.269531 42.363281 15.835938 42.375 C 16.65625 42.386719 17.089844 42.210938 17.375 42.210938 C 17.207031 45.242188 18.65625 47.226563 21.371094 48.351563 C 23.769531 49.347656 25.9375 48.859375 27.359375 49.984375 C 27.773438 50.308594 27.980469 50.539063 28.226563 51.023438 C 28.296875 51.160156 28.339844 51.359375 28.390625 51.457031 C 28.492188 51.390625 28.601563 51.046875 28.664063 50.949219 C 29.957031 48.871094 33.105469 49.839844 35.480469 49.207031 C 36.253906 49 37.121094 48.566406 37.382813 48 C 37.546875 48.082031 37.652344 48.292969 37.800781 48.425781 C 39.425781 49.886719 43.300781 49.199219 44.992188 49.882813 C 46.191406 50.371094 46.28125 51.101563 46.523438 51.453125 C 46.652344 51.261719 46.59375 51.007813 46.941406 50.578125 C 48.398438 48.777344 50.824219 49.453125 53.539063 48.34375 C 55.785156 47.425781 57.84375 45.355469 57.546875 42.214844 C 57.921875 42.199219 58.710938 42.328125 59.171875 42.351563 C 59.761719 42.378906 60.21875 42.34375 60.777344 42.238281 C 63.542969 41.714844 64.894531 39.535156 65.933594 37.074219 C 66.722656 35.203125 66.828125 33.917969 67.957031 32.167969 C 68.890625 30.71875 69.945313 29.71875 71.710938 29.074219 C 70.890625 28.808594 70.085938 28.269531 69.515625 27.824219 C 68.324219 26.890625 67.328125 25.164063 66.800781 23.652344 C 65.664063 20.390625 64.496094 16.628906 60.714844 15.976563 C 59.097656 15.699219 58.761719 15.96875 57.566406 16.035156 C 57.683594 14.417969 57.21875 13.042969 56.476563 12.039063 C 55.746094 11.050781 54.925781 10.445313 53.550781 9.890625 C 51.46875 9.050781 51.175781 9.296875 49.363281 8.964844 C 48.667969 8.835938 48.035156 8.578125 47.53125 8.234375 C 46.671875 7.640625 46.796875 7.152344 46.523438 6.757813 C 46.46875 6.832031 46.359375 7.15625 46.289063 7.289063 C 45.554688 8.664063 43.640625 8.699219 42.246094 8.710938 C 41.4375 8.71875 40.160156 8.859375 39.367188 9.015625 C 38.839844 9.121094 38.148438 9.445313 37.789063 9.8125 C 37.675781 9.929688 37.578125 10.109375 37.410156 10.191406 C 35.460938 7.722656 31.046875 9.679688 28.96875 7.691406 C 28.535156 7.277344 28.542969 6.980469 28.390625 6.757813 C 28.167969 7.09375 28.179688 8.425781 25.507813 8.964844 C 24.046875 9.261719 22.636719 9.324219 21.339844 9.867188 C 20.207031 10.34375 19.160156 11 18.421875 12.015625 C 17.519531 13.25 17.347656 14.515625 17.367188 16.03125 C 16.535156 16.097656 16.097656 15.648438 14.195313 16.019531 C 13.261719 16.203125 12.464844 16.558594 11.800781 17.019531 C 10.285156 18.0625 9.109375 20.433594 8.546875 22.3125 C 7.886719 24.527344 7.101563 26.226563 5.472656 27.800781 C 4.980469 28.273438 4.148438 28.722656 3.339844 29.070313 "/>
<path style=" stroke:none;fill-rule:evenodd;fill:rgb(98.799133%,99.598694%,100%);fill-opacity:1;" d="M 50.015625 23.945313 C 50.019531 24.546875 49.960938 34.21875 50.042969 34.523438 L 51.683594 34.523438 C 51.773438 33.859375 51.710938 27.851563 51.714844 26.417969 C 51.914063 26.632813 55.992188 32.761719 56.457031 33.460938 C 56.660156 33.773438 56.992188 34.207031 57.132813 34.511719 L 59.28125 34.519531 L 59.28125 23.714844 L 57.605469 23.710938 L 57.605469 31.851563 C 57.421875 31.6875 53.253906 25.457031 52.765625 24.738281 C 52.597656 24.492188 52.191406 23.945313 52.085938 23.703125 L 50.015625 23.714844 Z M 40.644531 30.019531 C 40.671875 29.78125 41.007813 28.984375 41.113281 28.703125 L 42.101563 26.0625 C 42.273438 25.605469 42.332031 25.007813 42.949219 25.109375 C 43.375 25.179688 43.511719 25.804688 43.679688 26.199219 C 43.867188 26.636719 44.035156 27.035156 44.21875 27.472656 C 44.390625 27.878906 45.222656 29.773438 45.277344 30.023438 Z M 37.183594 34.503906 L 39.007813 34.507813 L 40.136719 31.394531 L 45.847656 31.394531 C 46.082031 31.863281 46.296875 32.449219 46.507813 32.949219 C 46.65625 33.289063 47.023438 34.292969 47.191406 34.5 L 48.984375 34.511719 C 48.898438 34.136719 45.628906 26.425781 45.316406 25.679688 C 44.820313 24.488281 44.699219 23.691406 43.097656 23.699219 C 41.679688 23.707031 41.25 23.765625 40.648438 25.398438 C 40.28125 26.378906 37.3125 34 37.183594 34.503906 Z M 28.402344 25.117188 C 29.71875 25.113281 31.039063 25.117188 32.359375 25.117188 C 34.472656 25.117188 34.394531 24.90625 34.394531 27.011719 C 34.394531 29.015625 34.683594 28.917969 32.359375 28.917969 C 31.039063 28.917969 29.703125 28.9375 28.386719 28.917969 Z M 26.722656 34.523438 C 27.085938 34.523438 28.101563 34.570313 28.386719 34.488281 L 28.386719 30.324219 C 29.214844 30.320313 33.003906 30.285156 33.503906 30.335938 C 34.574219 30.445313 34.394531 31.359375 34.394531 31.988281 C 34.394531 32.441406 34.335938 34.21875 34.421875 34.523438 L 36.058594 34.523438 C 36.144531 34.203125 36.078125 32.203125 36.078125 31.707031 C 36.078125 30.503906 36.136719 30.234375 35.203125 29.769531 C 35.835938 29.601563 36.070313 29.390625 36.078125 28.640625 C 36.085938 27.960938 36.078125 27.273438 36.078125 26.59375 C 36.078125 25.460938 36.28125 24.203125 34.78125 23.800781 C 34.046875 23.605469 31.746094 23.710938 30.824219 23.710938 C 29.457031 23.710938 28.089844 23.710938 26.722656 23.710938 Z M 17.351563 25.121094 C 18.617188 25.085938 19.929688 25.117188 21.199219 25.117188 C 23.179688 25.117188 23.152344 25.011719 23.152344 27.011719 C 23.152344 27.570313 23.285156 28.453125 22.914063 28.726563 C 22.550781 28.992188 21.722656 28.917969 21.199219 28.917969 C 19.933594 28.917969 18.597656 28.960938 17.339844 28.914063 Z M 15.6875 34.488281 C 15.925781 34.5625 17.027344 34.53125 17.339844 34.515625 L 17.339844 30.328125 C 19.257813 30.273438 21.269531 30.417969 23.152344 30.3125 C 25.144531 30.203125 24.816406 28.804688 24.816406 27.664063 C 24.816406 27.167969 24.816406 26.671875 24.816406 26.175781 C 24.816406 25.085938 24.878906 24.492188 24.09375 24.023438 C 23.363281 23.59375 22.40625 23.699219 21.476563 23.699219 C 20.527344 23.699219 19.542969 23.675781 18.59375 23.707031 C 17.878906 23.726563 16.273438 23.617188 15.683594 23.734375 L 15.6875 34.488281 "/>
<path style=" stroke:none;fill-rule:nonzero;fill:rgb(13.699341%,12.199402%,12.5%);fill-opacity:1;" d="M 59.921875 43.546875 C 60.179688 43.546875 60.429688 43.609375 60.667969 43.742188 C 60.90625 43.871094 61.09375 44.054688 61.226563 44.296875 C 61.363281 44.539063 61.433594 44.792969 61.433594 45.054688 C 61.433594 45.320313 61.367188 45.570313 61.234375 45.808594 C 61.097656 46.046875 60.914063 46.230469 60.675781 46.367188 C 60.4375 46.5 60.1875 46.566406 59.921875 46.566406 C 59.660156 46.566406 59.410156 46.5 59.171875 46.367188 C 58.933594 46.230469 58.746094 46.046875 58.613281 45.808594 C 58.480469 45.570313 58.414063 45.320313 58.414063 45.054688 C 58.414063 44.792969 58.480469 44.539063 58.617188 44.296875 C 58.753906 44.054688 58.941406 43.871094 59.175781 43.742188 C 59.414063 43.609375 59.664063 43.546875 59.921875 43.546875 Z M 59.925781 43.84375 C 59.714844 43.84375 59.515625 43.898438 59.328125 44 C 59.136719 44.105469 58.984375 44.253906 58.875 44.445313 C 58.765625 44.640625 58.710938 44.84375 58.710938 45.054688 C 58.710938 45.269531 58.765625 45.46875 58.871094 45.660156 C 58.980469 45.851563 59.128906 46.003906 59.320313 46.109375 C 59.511719 46.21875 59.714844 46.269531 59.925781 46.269531 C 60.136719 46.269531 60.335938 46.21875 60.527344 46.109375 C 60.71875 46.003906 60.867188 45.851563 60.976563 45.660156 C 61.085938 45.46875 61.136719 45.269531 61.136719 45.054688 C 61.136719 44.84375 61.082031 44.640625 60.972656 44.445313 C 60.863281 44.253906 60.714844 44.105469 60.523438 44 C 60.332031 43.898438 60.132813 43.84375 59.925781 43.84375 Z M 59.238281 45.863281 L 59.238281 44.265625 L 59.566406 44.265625 C 59.867188 44.265625 60.039063 44.265625 60.078125 44.269531 C 60.183594 44.277344 60.265625 44.300781 60.328125 44.332031 C 60.386719 44.363281 60.4375 44.417969 60.476563 44.484375 C 60.515625 44.554688 60.535156 44.632813 60.535156 44.714844 C 60.535156 44.832031 60.496094 44.929688 60.421875 45.011719 C 60.347656 45.09375 60.242188 45.144531 60.105469 45.164063 C 60.15625 45.179688 60.191406 45.203125 60.21875 45.222656 C 60.246094 45.246094 60.28125 45.285156 60.328125 45.347656 C 60.339844 45.363281 60.378906 45.425781 60.445313 45.539063 L 60.632813 45.863281 L 60.230469 45.863281 L 60.097656 45.601563 C 60.007813 45.429688 59.933594 45.320313 59.875 45.273438 C 59.816406 45.226563 59.742188 45.207031 59.652344 45.207031 L 59.566406 45.207031 L 59.566406 45.863281 Z M 59.566406 44.953125 L 59.699219 44.953125 C 59.886719 44.953125 60.003906 44.945313 60.046875 44.929688 C 60.09375 44.914063 60.128906 44.890625 60.152344 44.855469 C 60.179688 44.820313 60.191406 44.777344 60.191406 44.734375 C 60.191406 44.691406 60.179688 44.648438 60.15625 44.613281 C 60.128906 44.582031 60.09375 44.554688 60.046875 44.539063 C 60 44.527344 59.882813 44.519531 59.699219 44.519531 L 59.566406 44.519531 L 59.566406 44.953125 "/>
</g>
</svg>
